<?xml version="1.0" encoding="UTF-8" standalone="no"?>
<!-- Created with Inkscape (http://www.inkscape.org/) -->

<svg
   xmlns:dc="http://purl.org/dc/elements/1.1/"
   xmlns:cc="http://creativecommons.org/ns#"
   xmlns:rdf="http://www.w3.org/1999/02/22-rdf-syntax-ns#"
   xmlns:svg="http://www.w3.org/2000/svg"
   xmlns="http://www.w3.org/2000/svg"
   xmlns:sodipodi="http://sodipodi.sourceforge.net/DTD/sodipodi-0.dtd"
   xmlns:inkscape="http://www.inkscape.org/namespaces/inkscape"
   version="1.1"
   id="svg2"
   xml:space="preserve"
   width="666.66669"
   height="666.66669"
   viewBox="0 0 666.66669 666.66669"
   sodipodi:docname="199759-OYOL8O-663.svg"
   inkscape:version="0.92.2 (5c3e80d, 2017-08-06)"><metadata
     id="metadata8"><rdf:RDF><cc:Work
         rdf:about=""><dc:format>image/svg+xml</dc:format><dc:type
           rdf:resource="http://purl.org/dc/dcmitype/StillImage" /><dc:title></dc:title></cc:Work></rdf:RDF></metadata><defs
     id="defs6"><clipPath
       clipPathUnits="userSpaceOnUse"
       id="clipPath20"><path
         d="M 0,500 H 500 V 0 H 0 Z"
         id="path18"
         inkscape:connector-curvature="0" /></clipPath><clipPath
       clipPathUnits="userSpaceOnUse"
       id="clipPath124"><path
         d="M 0,500 H 500 V 0 H 0 Z"
         id="path122"
         inkscape:connector-curvature="0" /></clipPath></defs><sodipodi:namedview
     pagecolor="#ffffff"
     bordercolor="#666666"
     borderopacity="1"
     objecttolerance="10"
     gridtolerance="10"
     guidetolerance="10"
     inkscape:pageopacity="0"
     inkscape:pageshadow="2"
     inkscape:window-width="689"
     inkscape:window-height="480"
     id="namedview4"
     showgrid="false"
     inkscape:zoom="0.35399999"
     inkscape:cx="333.33334"
     inkscape:cy="333.33334"
     inkscape:window-x="0"
     inkscape:window-y="0"
     inkscape:window-maximized="0"
     inkscape:current-layer="g10" /><g
     id="g10"
     inkscape:groupmode="layer"
     inkscape:label="199759-OYOL8O-663"
     transform="matrix(1.3333333,0,0,-1.3333333,0,666.66667)"><path
       d="M 0,0 H 500 V 500 H 0 Z"
       style="fill:#006d8e;fill-opacity:1;fill-rule:nonzero;stroke:none"
       id="path12"
       inkscape:connector-curvature="0" /><g
       id="g14"><g
         id="g16"
         clip-path="url(#clipPath20)"><g
           id="g22"
           transform="translate(27.1646,331.8545)"><path
             d="m 0,0 c 0.087,-0.179 0.185,-0.361 0.291,-0.546 0.015,-0.027 0.027,-0.053 0.042,-0.079 0.121,-0.21 0.252,-0.424 0.397,-0.643 10.327,-15.663 35.984,-1.821 51.919,-8.105 11.66,-4.599 16.852,-15.525 29.767,-18.848 16.478,-4.237 25.939,14.633 40.952,16.851 5.77,0.852 10.718,-1.037 14.694,-3.921 4.098,-2.972 10.26,-5.292 15.525,-2.493 5.225,2.776 7.996,5.724 14.105,7.299 5.971,1.538 9.771,-0.765 15.527,-1.997 4.978,-1.065 9.364,-2.058 12.586,-5.473 1.78,-1.887 2.359,-4.482 4.155,-6.229 0.997,-0.967 5.338,-3.931 6.842,-4.077 4.816,-0.47 8.805,4.41 12.384,7.235 4.478,3.532 9.737,4.359 15.114,4.625 2.319,0.114 4.961,0.59 7.164,-0.455 2.647,-1.257 2.789,-4.258 4.762,-6.187 2.59,-2.529 8.828,-2.418 12.578,-0.794 0.363,0.157 0.697,0.326 1.008,0.503 0.104,0.06 0.191,0.125 0.291,0.187 0.195,0.122 0.393,0.244 0.568,0.375 0.104,0.078 0.192,0.161 0.287,0.242 0.149,0.123 0.297,0.245 0.426,0.374 0.09,0.09 0.168,0.184 0.25,0.276 0.116,0.129 0.229,0.257 0.328,0.39 0.073,0.098 0.135,0.2 0.2,0.301 0.088,0.136 0.173,0.272 0.246,0.412 0.054,0.104 0.101,0.211 0.148,0.318 0.063,0.144 0.123,0.289 0.172,0.438 0.037,0.108 0.068,0.217 0.098,0.328 0.041,0.154 0.078,0.309 0.105,0.467 0.02,0.11 0.037,0.22 0.051,0.331 0.019,0.166 0.031,0.333 0.037,0.502 0.006,0.108 0.01,0.216 0.008,0.326 -0.002,0.18 -0.012,0.362 -0.027,0.546 -0.008,0.101 -0.016,0.203 -0.028,0.305 -0.025,0.2 -0.06,0.402 -0.099,0.605 -0.018,0.09 -0.032,0.178 -0.051,0.267 -0.051,0.23 -0.114,0.461 -0.184,0.694 -0.017,0.066 -0.033,0.13 -0.055,0.196 -0.089,0.286 -0.191,0.573 -0.304,0.862 -0.006,0.013 -0.01,0.027 -0.016,0.04 -0.498,1.256 -1.213,2.533 -2.066,3.784 -0.002,0.001 -0.002,0.001 -0.002,0.002 -2.949,4.32 -7.553,8.311 -10.651,9.862 -3.984,1.994 -8.152,2.013 -12.75,2.392 -7.203,0.596 -10.752,2.959 -15.496,6.874 -4.845,4 -7.724,5.686 -15.203,5.413 -6.658,-0.243 -12.095,-2.095 -18.431,-3.097 -6.521,-1.031 -13.156,-0.22 -18.521,1.78 -3.86,1.438 -7.492,3.214 -11.076,4.569 -8.077,3.056 -17.146,2.133 -25.293,-0.233 -4.833,-1.404 -8.637,-4.488 -13.276,-6.219 -6.673,-2.491 -8.622,-0.383 -14.455,1.797 -2.763,1.032 -5.938,0.987 -8.906,0.512 -4.561,-0.731 -8.014,-2.264 -13.125,-2.061 -2.399,0.096 -5.575,0.442 -7.643,1.288 -1.96,0.801 -2.994,2.722 -4.901,3.454 C 66.734,17.001 58.575,15.398 54.993,14.258 50.203,12.733 45.914,10.226 41.415,8.28 39.628,8.273 37.839,8.254 36.051,8.189 27.449,7.875 -5.762,11.869 -0.015,0.032 -0.01,0.021 -0.005,0.011 0,0"
             style="fill:#005b77;fill-opacity:1;fill-rule:nonzero;stroke:none"
             id="path24"
             inkscape:connector-curvature="0" /></g><g
           id="g26"
           transform="translate(273.7861,335.2217)"><path
             d="m 0,0 c -3.983,1.994 -8.152,2.013 -12.749,2.393 -7.204,0.595 -10.752,2.959 -15.497,6.873 -4.845,4 -7.724,5.686 -15.203,5.413 -6.658,-0.243 -12.095,-2.095 -18.431,-3.096 -6.521,-1.032 -13.156,-0.221 -18.521,1.779 -3.86,1.438 -7.492,3.214 -11.076,4.57 -8.077,3.055 -17.146,2.132 -25.293,-0.234 -4.833,-1.404 -8.637,-4.488 -13.276,-6.219 -6.673,-2.491 -8.621,-0.382 -14.455,1.797 -2.763,1.033 -5.937,0.988 -8.906,0.513 -4.561,-0.731 -8.014,-2.265 -13.125,-2.061 -2.399,0.095 -5.575,0.441 -7.643,1.287 -1.96,0.801 -2.994,2.722 -4.901,3.455 -3.734,1.435 -11.893,-0.167 -15.475,-1.307 -4.79,-1.525 -9.079,-4.033 -13.578,-5.979 -1.787,-0.007 -3.576,-0.025 -5.364,-0.091 -8.903,-0.324 -44.171,3.967 -35.321,-9.456 10.327,-15.664 35.984,-1.822 51.919,-8.106 11.66,-4.599 16.852,-15.525 29.767,-18.847 16.478,-4.238 25.939,14.632 40.952,16.851 5.77,0.852 10.718,-1.037 14.694,-3.921 4.098,-2.973 10.26,-5.293 15.525,-2.494 5.226,2.776 7.996,5.725 14.105,7.299 5.971,1.539 9.771,-0.765 15.527,-1.997 4.978,-1.065 9.365,-2.057 12.586,-5.473 1.781,-1.887 2.359,-4.482 4.156,-6.229 0.996,-0.967 5.337,-3.93 6.841,-4.076 4.816,-0.471 8.805,4.41 12.384,7.234 4.478,3.532 9.738,4.36 15.115,4.625 2.317,0.115 4.961,0.591 7.163,-0.455 2.646,-1.256 2.789,-4.258 4.763,-6.187 2.588,-2.528 8.827,-2.418 12.577,-0.794 C 20.437,-18.088 6.692,-3.351 0,0"
             style="fill:#ffffff;fill-opacity:1;fill-rule:nonzero;stroke:none"
             id="path28"
             inkscape:connector-curvature="0" /></g><g
           id="g30"
           transform="translate(267.0186,326.8027)"><path
             d="m 0,0 c -4.807,2.955 -9.044,2.629 -14.489,2.629 -2.529,0 -5.071,0.081 -7.598,0 -3.713,-0.12 -4.042,-1.019 -7.016,-2.047 -4.848,-1.679 -9.363,-0.734 -14.055,1.142 -4.784,1.914 -10.064,2.816 -15.076,5.063 -4.712,2.111 -9.309,2.748 -14.715,2.748 -6.143,0 -10.742,0.098 -15.728,-3.172 -4.564,-2.994 -7.999,-4.844 -13.052,-2.581 -5.346,2.396 -9.139,5.085 -15.755,3.628 -5.804,-1.278 -7.778,-7.524 -14.047,-7.863 -6.971,-0.376 -6.993,4.491 -13.845,0.424 -4.514,-2.679 -10.693,-4.89 -16.263,-3.211 -10.067,3.034 -18.263,18.891 -29.444,15.588 -3.138,-0.928 -5.101,-3.158 -8.584,-3.344 -2.952,-0.158 -5.417,0.872 -8.116,1.581 -3.327,0.873 -7.555,2.214 -11.094,0.968 -2.316,-0.817 -2.936,-2.841 -5.662,-3.08 -2.853,-0.25 -5.366,1.681 -8.117,2.123 -2.417,0.389 -5.185,0.002 -7.622,0.002 -0.741,0 -1.795,-0.065 -2.96,-0.108 0.219,-0.739 0.607,-1.547 1.192,-2.434 10.327,-15.664 35.984,-1.822 51.919,-8.106 11.659,-4.599 16.852,-15.525 29.767,-18.847 16.478,-4.238 25.939,14.632 40.952,16.851 5.769,0.852 10.718,-1.037 14.694,-3.921 4.098,-2.973 10.259,-5.293 15.525,-2.494 5.225,2.776 7.995,5.725 14.105,7.299 5.97,1.538 9.771,-0.765 15.526,-1.997 4.978,-1.065 9.365,-2.057 12.586,-5.473 1.781,-1.887 2.36,-4.482 4.156,-6.229 0.997,-0.967 5.337,-3.931 6.841,-4.076 4.817,-0.471 8.806,4.41 12.385,7.234 4.477,3.532 9.737,4.36 15.114,4.625 2.318,0.115 4.961,0.591 7.164,-0.455 2.646,-1.257 2.789,-4.258 4.762,-6.187 2.589,-2.529 8.827,-2.418 12.577,-0.794 6.004,2.602 4.814,8.058 1.392,13.071 C 16.027,-2.84 14.48,-4.271 12.38,-4.862 6.767,-6.441 4,-2.458 0,0"
             style="fill:#a7d7ea;fill-opacity:1;fill-rule:nonzero;stroke:none"
             id="path32"
             inkscape:connector-curvature="0" /></g><g
           id="g34"
           transform="translate(38.3481,447.6221)"><path
             d="M 0,0 C 0.021,-0.01 0.043,-0.019 0.065,-0.029 0.245,-0.106 0.424,-0.183 0.603,-0.26 0.64,-0.276 0.677,-0.292 0.714,-0.308 0.89,-0.383 1.065,-0.458 1.241,-0.532 l 0.096,-0.041 c 0.164,-0.069 0.327,-0.137 0.49,-0.205 0.057,-0.025 0.115,-0.049 0.172,-0.073 0.152,-0.064 0.303,-0.127 0.454,-0.189 0.05,-0.021 0.099,-0.041 0.149,-0.062 0.157,-0.065 0.313,-0.128 0.467,-0.192 0.049,-0.02 0.098,-0.04 0.146,-0.06 0.151,-0.062 0.3,-0.123 0.448,-0.183 0.055,-0.022 0.109,-0.044 0.164,-0.066 0.134,-0.054 0.267,-0.108 0.4,-0.162 0.083,-0.033 0.165,-0.066 0.248,-0.099 0.099,-0.04 0.199,-0.08 0.297,-0.12 C 4.868,-2.022 4.963,-2.06 5.058,-2.098 5.156,-2.137 5.253,-2.175 5.35,-2.213 5.445,-2.251 5.538,-2.288 5.632,-2.325 5.715,-2.358 5.798,-2.391 5.88,-2.423 5.978,-2.461 6.072,-2.498 6.167,-2.535 6.253,-2.569 6.34,-2.603 6.425,-2.636 6.512,-2.67 6.597,-2.703 6.682,-2.736 6.762,-2.767 6.842,-2.798 6.92,-2.828 7.028,-2.87 7.134,-2.911 7.239,-2.951 7.29,-2.971 7.341,-2.991 7.391,-3.01 7.493,-3.049 7.592,-3.087 7.69,-3.125 7.748,-3.146 7.807,-3.169 7.864,-3.191 7.971,-3.231 8.073,-3.271 8.175,-3.309 8.211,-3.323 8.248,-3.337 8.283,-3.35 8.403,-3.396 8.519,-3.439 8.632,-3.481 8.65,-3.488 8.67,-3.496 8.688,-3.503 8.762,-3.531 8.832,-3.557 8.902,-3.583 9.08,-3.649 9.25,-3.713 9.405,-3.77 v -42.5 c 0,-1.486 1.204,-2.691 2.69,-2.691 1.487,0 2.691,1.205 2.691,2.691 v 39.693 c 4.392,-3.26 7.014,-7.395 13.493,-5.518 7.428,2.152 11.267,4.616 18.882,0.148 0.88,-0.516 1.587,-1.092 2.192,-1.699 v -24.032 c 0,-1.486 1.205,-2.691 2.69,-2.691 1.486,0 2.692,1.205 2.692,2.691 v 17.928 c 1.44,-1.026 3.049,-1.698 4.744,-2.128 v -40.795 c 0,-1.486 1.205,-2.691 2.69,-2.691 1.487,0 2.692,1.205 2.692,2.691 v 40.133 c 1.165,-0.024 2.332,0.007 3.48,0.072 0.428,0.025 0.846,0.062 1.26,0.103 v -20.866 c 0,-1.486 1.205,-2.69 2.691,-2.69 1.485,0 2.691,1.204 2.691,2.69 v 21.833 c 4.823,1.191 9.229,2.909 15.215,2.895 3.884,-0.01 7.102,-0.411 10.015,-1.117 v -16.461 c 0,-1.486 1.205,-2.69 2.691,-2.69 1.486,0 2.692,1.204 2.692,2.69 v 14.716 c 4.11,-1.646 8.049,-3.885 13.126,-6.42 2.039,-1.018 4.263,-1.711 6.606,-2.158 v -57.265 c 0,-1.224 0.992,-2.216 2.216,-2.216 1.224,0 2.216,0.992 2.216,2.216 v 56.707 c 2.093,-0.139 4.246,-0.124 6.423,0.001 v -18.218 c 0,-1.486 1.204,-2.69 2.69,-2.69 1.486,0 2.691,1.204 2.691,2.69 v 18.73 c 6.113,0.787 12.158,2.185 17.322,3.321 v -43.921 c 0,-1.486 1.204,-2.691 2.69,-2.691 1.486,0 2.691,1.205 2.691,2.691 v 45.231 c 4.34,1.286 8.665,3.127 13,4.757 v -17.078 c 0,-1.486 1.205,-2.691 2.691,-2.691 1.486,0 2.691,1.205 2.691,2.691 v 18.931 c 2.008,0.609 4.02,1.113 6.039,1.418 8.944,1.355 15.973,-3.486 24.576,-3.83 7.612,-0.305 17.403,2.02 24.987,3.334 9.206,1.595 17.887,2.442 27.258,3.966 8.571,1.393 15.207,0.764 23.612,-0.827 2.316,-0.438 4.759,-0.523 7.252,-0.488 v -22.504 c 0,-1.486 1.205,-2.691 2.691,-2.691 1.486,0 2.691,1.205 2.691,2.691 v 22.685 c 3.539,0.139 7.063,0.2 10.356,-0.428 V -60.13 c 0,-1.486 1.205,-2.69 2.691,-2.69 1.485,0 2.692,1.204 2.692,2.69 v 42.822 c 1.752,-0.918 3.406,-2.044 5.064,-3.18 V -47.15 c 0,-1.486 1.203,-2.69 2.69,-2.69 1.486,0 2.691,1.204 2.691,2.69 v 23.307 c 1.98,-1.013 4.094,-1.764 6.49,-1.942 4.188,-0.31 8.567,0.831 12.701,1.302 2.223,0.252 5.705,0.168 7.752,0.798 4.092,1.262 4.805,4.48 7.59,6.067 4.449,2.535 9.91,1.554 15.486,1.188 v -43.7 c 0,-1.486 1.206,-2.69 2.692,-2.69 1.484,0 2.691,1.204 2.691,2.69 v 43.69 c 2.967,0.206 5.774,0.725 8.547,1.309 v -18.406 c 0,-1.486 1.205,-2.691 2.692,-2.691 1.486,0 2.691,1.205 2.691,2.691 v 19.506 c 1.984,0.372 4.002,0.682 6.104,0.814 7.404,0.462 13.828,0.511 20.511,2.148 4.399,1.076 12.801,0.907 16.424,3.913 0.065,0.335 0.102,0.658 0.117,0.972 0.004,0.061 -0.002,0.118 -0.002,0.178 0.006,0.257 0,0.509 -0.025,0.753 -0.004,0.04 -0.014,0.078 -0.02,0.118 -0.033,0.262 -0.084,0.517 -0.152,0.763 -0.004,0.018 -0.012,0.034 -0.016,0.052 -0.076,0.262 -0.171,0.517 -0.287,0.762 -0.002,0.004 -0.002,0.008 -0.004,0.012 -0.002,0 -0.002,0 -0.002,0 -3.105,6.62 -19.568,6.976 -25.017,7.523 -10.99,1.102 -18.625,-3.723 -29.934,1.255 -12.234,5.386 -23.203,1.454 -35.662,4.676 -10.863,2.809 -13.982,1.424 -24.015,-3.792 -7.674,-3.989 -13.913,0.631 -22.28,-0.173 -8.627,-0.827 -13.9,-1.658 -22.121,2.019 -7.519,3.364 -15.771,3.494 -22.808,0.789 -4.092,-1.572 -3.975,-1.97 -8.622,-2.113 -2.834,-0.086 -5.933,0.394 -8.724,-0.034 -7.242,-1.109 -12.221,-4.097 -20.426,-3.299 -7.435,0.723 -15.385,1.317 -23.642,1.317 h -25.83 c -8.026,0 -14.362,2.249 -21.909,3.319 C 133.354,10.15 121.663,3.21 106.772,5.978 99.656,7.3 92.558,8.585 85.135,8.586 77.435,8.587 71.943,6.063 64.634,5.283 52.802,4.02 38.5,4.26 26.629,5.283 17.745,6.048 10.316,7.788 1.042,8.586 -21.068,10.492 -10.213,4.428 0,0"
             style="fill:#005b77;fill-opacity:1;fill-rule:nonzero;stroke:none"
             id="path36"
             inkscape:connector-curvature="0" /></g><g
           id="g38"
           transform="translate(450.3271,455.8701)"><path
             d="M 0,0 C -10.99,1.102 -18.624,-3.723 -29.934,1.256 -42.168,6.642 -53.136,2.709 -65.596,5.931 -76.459,8.74 -79.577,7.355 -89.611,2.14 c -7.674,-3.989 -13.912,0.63 -22.279,-0.173 -8.628,-0.828 -13.9,-1.658 -22.121,2.018 -7.519,3.364 -15.772,3.494 -22.809,0.789 -4.092,-1.572 -3.974,-1.969 -8.621,-2.112 -2.834,-0.087 -5.934,0.393 -8.724,-0.034 -7.242,-1.11 -12.221,-4.098 -20.426,-3.299 -7.435,0.723 -15.386,1.317 -23.642,1.317 h -25.83 c -8.026,0 -14.363,2.249 -21.909,3.318 -15.575,2.209 -27.267,-4.73 -42.157,-1.963 -7.117,1.323 -14.215,2.608 -21.637,2.609 -7.7,10e-4 -13.192,-2.524 -20.501,-3.304 -11.832,-1.263 -26.134,-1.022 -38.005,0 -8.885,0.766 -16.313,2.505 -25.587,3.304 -30.341,2.615 1.395,-9.778 8.362,-12.357 v -42.5 c 0,-1.485 1.205,-2.691 2.691,-2.691 1.486,0 2.691,1.206 2.691,2.691 v 39.694 c 4.392,-3.261 7.013,-7.395 13.492,-5.518 7.428,2.152 11.268,4.615 18.883,0.148 0.88,-0.516 1.586,-1.093 2.192,-1.7 v -24.032 c 0,-1.486 1.204,-2.69 2.69,-2.69 1.486,0 2.692,1.204 2.692,2.69 v 17.929 c 1.44,-1.026 3.049,-1.699 4.744,-2.128 V -66.65 c 0,-1.486 1.204,-2.691 2.69,-2.691 1.486,0 2.691,1.205 2.691,2.691 v 40.133 c 1.166,-0.024 2.333,0.008 3.48,0.073 0.429,0.024 0.846,0.061 1.26,0.102 v -20.866 c 0,-1.485 1.205,-2.69 2.691,-2.69 1.486,0 2.692,1.205 2.692,2.69 v 21.833 c 4.823,1.192 9.229,2.91 15.214,2.895 3.884,-0.009 7.103,-0.41 10.016,-1.117 v -16.461 c 0,-1.485 1.205,-2.69 2.69,-2.69 1.486,0 2.692,1.205 2.692,2.69 v 14.717 c 4.111,-1.647 8.049,-3.886 13.127,-6.421 2.038,-1.017 4.263,-1.711 6.606,-2.158 v -57.265 c 0,-1.224 0.992,-2.216 2.216,-2.216 1.224,0 2.216,0.992 2.216,2.216 v 56.707 c 2.093,-0.138 4.246,-0.123 6.422,0.002 v -18.218 c 0,-1.486 1.205,-2.691 2.691,-2.691 1.486,0 2.691,1.205 2.691,2.691 v 18.729 c 6.113,0.787 12.157,2.186 17.321,3.322 v -43.922 c 0,-1.486 1.205,-2.69 2.691,-2.69 1.486,0 2.691,1.204 2.691,2.69 v 45.232 c 4.34,1.285 8.665,3.126 13,4.757 v -17.079 c 0,-1.486 1.205,-2.69 2.691,-2.69 1.485,0 2.691,1.204 2.691,2.69 v 18.931 c 2.007,0.61 4.02,1.113 6.039,1.419 8.943,1.355 15.973,-3.487 24.576,-3.831 7.613,-0.304 17.403,2.02 24.987,3.334 9.205,1.595 17.886,2.442 27.258,3.966 8.57,1.394 15.207,0.765 23.612,-0.827 2.315,-0.438 4.759,-0.523 7.252,-0.487 v -22.505 c 0,-1.486 1.205,-2.69 2.69,-2.69 1.486,0 2.692,1.204 2.692,2.69 v 22.685 c 3.54,0.139 7.063,0.2 10.356,-0.428 v -44.708 c 0,-1.486 1.204,-2.691 2.69,-2.691 1.486,0 2.692,1.205 2.692,2.691 v 42.821 c 1.752,-0.918 3.407,-2.043 5.064,-3.179 v -26.662 c 0,-1.486 1.204,-2.691 2.691,-2.691 1.485,0 2.691,1.205 2.691,2.691 v 23.307 c 1.981,-1.014 4.094,-1.764 6.49,-1.942 4.187,-0.31 8.566,0.831 12.701,1.301 2.223,0.252 5.706,0.168 7.751,0.799 4.092,1.261 4.806,4.48 7.591,6.066 4.449,2.535 9.909,1.554 15.487,1.189 v -43.7 c 0,-1.486 1.204,-2.691 2.69,-2.691 1.485,0 2.691,1.205 2.691,2.691 v 43.689 c 2.967,0.207 5.775,0.725 8.548,1.309 v -18.406 c 0,-1.486 1.205,-2.69 2.691,-2.69 1.486,0 2.692,1.204 2.692,2.69 v 19.507 c 1.984,0.371 4.001,0.681 6.104,0.813 7.403,0.463 13.828,0.512 20.51,2.148 4.399,1.077 12.801,0.908 16.424,3.913 C 27.381,-1.002 6.308,-0.632 0,0"
             style="fill:#ffffff;fill-opacity:1;fill-rule:nonzero;stroke:none"
             id="path40"
             inkscape:connector-curvature="0" /></g><g
           id="g42"
           transform="translate(475.3467,448.3472)"><path
             d="m 0,0 c -3.118,0.559 -4.842,0.915 -8.465,-0.096 -3.279,-0.914 -7.072,-1.573 -10.613,-1.32 -3.386,0.244 -6.269,2.204 -9.891,2.324 -4.55,0.151 -8.398,-2.274 -13.109,-2.325 -7.667,-0.081 -14.869,3.535 -21.832,-1.347 -2.815,-1.972 -5.436,-4.541 -9.242,-3.65 -4.417,1.034 -6.411,4.894 -11.41,4.259 -5.437,-0.69 -6.171,-5.366 -10.139,-7.495 -5.471,-2.936 -9.403,1.178 -13.129,3.833 -4.177,2.974 -8.498,0.765 -13.199,1.08 -4.492,0.3 -7.378,2.023 -11.481,3.753 -4.632,1.952 -9.098,2.399 -14.246,1.89 -3.98,-0.393 -7.295,-2.615 -11.199,-2.987 -3.712,-0.354 -7.321,0.269 -10.464,1.427 -13.341,4.914 -23.279,-3.355 -34.898,-7.751 -1.754,-0.663 -3.984,-0.902 -5.698,-1.489 -1.185,-0.407 -1.962,-1.033 -3.313,-1.169 -8.662,-0.876 -13.833,4.324 -21.056,8.202 -6.375,3.423 -14.953,1.382 -21.846,0.854 -6.332,-0.487 -13.661,-0.851 -19.458,-3.576 -3.957,-1.859 -5.86,-6.865 -10.17,-7.794 -5.023,-1.082 -8.664,2.161 -12.797,3.991 -4.078,1.806 -7.967,1.941 -11.637,-0.358 -3.447,-2.159 -5.307,-3.72 -10.056,-2.562 -4.952,1.207 -7.079,4.865 -10.98,7.559 -4.166,2.878 -9.949,4.713 -15.073,3.662 -3.531,-0.724 -5.38,-2.263 -9.346,-2.066 -3.605,0.178 -6.342,0.321 -9.296,-1.263 -4.607,-2.469 -6.964,-4.115 -12.533,-2.832 -5.427,1.25 -8.338,4.514 -12.57,7.499 -8.513,6.006 -17.244,0.975 -26.702,1.319 -3.971,0.145 -5.425,2.728 -8.64,4.224 -3.084,1.435 -6.24,0.544 -9.297,1.742 -3.322,1.301 -5.777,3.208 -8.365,4.832 -24.612,1.42 4.939,-10.117 11.634,-12.594 v -42.5 c 0,-1.485 1.204,-2.691 2.69,-2.691 1.487,0 2.691,1.206 2.691,2.691 V -3.03 c 4.392,-3.261 7.014,-7.395 13.493,-5.518 7.428,2.152 11.267,4.615 18.882,0.148 0.88,-0.517 1.587,-1.093 2.192,-1.7 v -24.032 c 0,-1.486 1.205,-2.69 2.691,-2.69 1.485,0 2.691,1.204 2.691,2.69 v 17.929 c 1.44,-1.026 3.049,-1.699 4.744,-2.129 v -40.795 c 0,-1.486 1.205,-2.691 2.691,-2.691 1.486,0 2.691,1.205 2.691,2.691 v 40.133 c 1.165,-0.024 2.332,0.008 3.48,0.073 0.428,0.024 0.846,0.061 1.26,0.102 v -20.866 c 0,-1.485 1.205,-2.69 2.691,-2.69 1.485,0 2.691,1.205 2.691,2.69 v 21.833 c 4.823,1.192 9.229,2.91 15.215,2.895 3.884,-0.009 7.102,-0.41 10.015,-1.117 v -16.461 c 0,-1.486 1.205,-2.69 2.691,-2.69 1.486,0 2.692,1.204 2.692,2.69 v 14.717 c 4.11,-1.647 8.049,-3.886 13.126,-6.421 2.039,-1.017 4.263,-1.711 6.606,-2.158 v -57.265 c 0,-1.224 0.992,-2.216 2.217,-2.216 1.223,0 2.215,0.992 2.215,2.216 v 56.707 c 2.093,-0.138 4.246,-0.123 6.423,0.002 v -18.218 c 0,-1.486 1.204,-2.691 2.69,-2.691 1.486,0 2.692,1.205 2.692,2.691 v 18.729 c 6.112,0.787 12.157,2.186 17.321,3.322 v -43.922 c 0,-1.486 1.204,-2.69 2.69,-2.69 1.487,0 2.691,1.204 2.691,2.69 v 45.231 c 4.341,1.286 8.665,3.127 13,4.758 v -17.079 c 0,-1.486 1.205,-2.69 2.691,-2.69 1.486,0 2.692,1.204 2.692,2.69 v 18.931 c 2.007,0.61 4.019,1.113 6.038,1.419 8.944,1.355 15.973,-3.487 24.576,-3.831 7.613,-0.304 17.403,2.02 24.987,3.334 9.205,1.595 17.887,2.442 27.259,3.966 8.569,1.394 15.207,0.765 23.611,-0.827 2.316,-0.438 4.76,-0.523 7.252,-0.487 v -22.505 c 0,-1.486 1.205,-2.69 2.691,-2.69 1.486,0 2.691,1.204 2.691,2.69 v 22.685 c 3.54,0.139 7.063,0.2 10.356,-0.428 v -44.708 c 0,-1.486 1.205,-2.691 2.691,-2.691 1.485,0 2.691,1.205 2.691,2.691 v 42.821 c 1.752,-0.918 3.407,-2.043 5.065,-3.179 v -26.663 c 0,-1.485 1.204,-2.69 2.69,-2.69 1.485,0 2.692,1.205 2.692,2.69 v 23.308 c 1.98,-1.014 4.093,-1.765 6.49,-1.942 4.186,-0.31 8.565,0.831 12.7,1.301 2.224,0.252 5.706,0.168 7.752,0.799 4.092,1.261 4.806,4.48 7.591,6.066 4.448,2.535 9.909,1.554 15.486,1.189 v -43.7 c 0,-1.486 1.204,-2.691 2.691,-2.691 1.485,0 2.691,1.205 2.691,2.691 v 43.689 c 2.967,0.206 5.774,0.725 8.548,1.309 v -18.406 c 0,-1.486 1.205,-2.69 2.69,-2.69 1.487,0 2.693,1.204 2.693,2.69 v 19.507 c 1.984,0.371 4.001,0.681 6.103,0.813 7.403,0.463 13.828,0.512 20.511,2.148 4.398,1.077 12.801,0.908 16.424,3.913 C 0.657,-2.232 0.488,-1.042 0,0"
             style="fill:#a7d7ea;fill-opacity:1;fill-rule:nonzero;stroke:none"
             id="path44"
             inkscape:connector-curvature="0" /></g><g
           id="g46"
           transform="translate(476.832,333.2344)"><path
             d="M 0,0 C -0.229,0.161 -0.49,0.319 -0.766,0.475 -0.832,0.512 -0.902,0.549 -0.971,0.587 -1.219,0.721 -1.48,0.853 -1.758,0.983 -1.799,1.001 -1.836,1.02 -1.875,1.038 -2.57,1.356 -3.348,1.658 -4.178,1.94 -4.184,1.942 -4.187,1.943 -4.193,1.945 v 0 c -3.27,1.11 -7.36,1.912 -10.495,2.131 -6.357,0.444 -12.865,-1.107 -19.121,-0.353 -7.23,0.87 -7.693,3.804 -11.308,6.855 -5.803,4.895 -17.301,3.356 -27.154,3.656 -10.211,0.313 -12.612,5.112 -22.67,5.138 -8.088,0.02 -11.731,0.293 -17.522,-2.687 -5.223,-2.688 -8.266,-5.999 -13.092,-8.879 -5.332,-3.181 -13.502,-3.81 -19.882,-6.172 -3.067,-1.134 -6.036,-2.581 -9.209,-3.762 -0.29,-0.108 -0.579,-0.215 -0.872,-0.318 -0.38,-0.133 -0.769,-0.257 -1.156,-0.381 -0.277,-0.088 -0.551,-0.178 -0.83,-0.259 -0.441,-0.129 -0.892,-0.242 -1.346,-0.354 -0.238,-0.059 -0.47,-0.125 -0.711,-0.178 -0.701,-0.155 -1.414,-0.291 -2.146,-0.395 -6.26,-0.887 -13.643,1.064 -12.277,-4.057 0.617,-2.308 4.961,-3.937 9.695,-4.716 9.545,-2.356 7.018,-10.215 20.779,-8.53 13.674,1.675 19.885,8.018 35.344,4.632 5.066,-1.108 9.484,-3.317 13.617,-5.108 6.076,-2.634 7.975,-2.384 15.217,-0.2 5.121,1.544 8.492,5.155 14.238,5.568 4.455,0.32 12.602,-0.504 16.969,-1.146 12.357,-1.814 18.889,-12.894 33.66,-8.671 17.096,4.887 3.006,11.809 8.699,18.845 C -3.475,-4.564 5.988,-4.216 0,0"
             style="fill:#005b77;fill-opacity:1;fill-rule:nonzero;stroke:none"
             id="path48"
             inkscape:connector-curvature="0" /></g><g
           id="g50"
           transform="translate(473.9092,337.5059)"><path
             d="m 0,0 c -2.936,2.067 -9.92,3.743 -14.687,4.076 -6.357,0.444 -12.865,-1.107 -19.122,-0.353 -7.229,0.87 -7.692,3.804 -11.307,6.855 -5.804,4.895 -17.302,3.356 -27.155,3.656 -10.211,0.313 -12.611,5.112 -22.67,5.138 -8.087,0.02 -11.73,0.293 -17.521,-2.687 -5.224,-2.688 -8.266,-5.999 -13.093,-8.879 -5.331,-3.181 -13.501,-3.81 -19.882,-6.172 -5.209,-1.928 -10.125,-4.777 -16.269,-5.647 -6.261,-0.887 -13.643,1.064 -12.277,-4.057 0.616,-2.308 4.96,-3.937 9.695,-4.716 9.544,-2.356 7.017,-10.215 20.778,-8.53 13.674,1.675 19.885,8.018 35.345,4.632 5.065,-1.108 9.483,-3.317 13.616,-5.108 6.076,-2.634 7.976,-2.384 15.217,-0.2 5.122,1.544 8.493,5.155 14.239,5.568 4.454,0.32 12.602,-0.504 16.969,-1.146 12.357,-1.814 18.889,-12.894 33.66,-8.671 17.096,4.887 3.006,11.809 8.699,18.845 C -3.475,-4.564 5.988,-4.216 0,0"
             style="fill:#ffffff;fill-opacity:1;fill-rule:nonzero;stroke:none"
             id="path52"
             inkscape:connector-curvature="0" /></g><g
           id="g54"
           transform="translate(469.7168,339.4512)"><path
             d="m 0,0 c 0.959,-3.124 1.311,-3.948 -6.063,-5.522 -2.99,-0.639 -3.527,0.19 -5.804,-1.375 -1.699,-1.168 0.164,-2.939 -3.425,-3.838 -2.701,-0.677 -5.108,0.431 -7.518,-0.682 -2.855,-1.321 1.412,-2.51 -4.029,-2.788 -5.738,-0.293 -7.33,4.04 -13.256,3.492 -3.389,-0.313 -3.615,-1.73 -7.088,-1.78 -2.243,-0.032 -7.994,1.549 -9.822,2.205 -2.738,0.981 -9.659,5.781 -12.097,1.696 -5.687,-0.744 -7.39,2.337 -13.125,0.644 -4.082,-1.206 -5.866,-3.211 -11.046,-1.999 -5.102,1.194 -5.314,4.611 -10.508,5.473 -6.224,1.034 -6.901,-1.343 -10.722,-2.855 -4.767,-1.886 -7.337,-0.45 -11.706,1.814 -1.986,1.03 -2.237,2.09 -5.323,2.092 -3.422,0.003 -3.305,-2.021 -5.889,-2.83 -4.369,-1.367 -11.789,-0.635 -12.437,2.146 -0.018,0.079 -0.011,0.164 -0.014,0.245 -2.393,-0.922 -4.894,-1.707 -7.642,-2.096 -6.26,-0.888 -13.642,1.063 -12.277,-4.057 0.616,-2.308 4.96,-3.938 9.695,-4.716 9.544,-2.356 7.017,-10.216 20.779,-8.53 13.673,1.675 19.884,8.017 35.344,4.632 5.066,-1.109 9.484,-3.317 13.617,-5.108 6.076,-2.635 7.975,-2.385 15.216,-0.2 5.122,1.543 8.494,5.155 14.24,5.568 4.454,0.32 12.601,-0.505 16.968,-1.146 12.358,-1.814 18.889,-12.894 33.661,-8.671 17.095,4.887 3.005,11.809 8.699,18.844 2.29,2.832 11.753,3.181 5.764,7.397 C 3.188,-1.238 1.702,-0.578 0,0"
             style="fill:#a7d7ea;fill-opacity:1;fill-rule:nonzero;stroke:none"
             id="path56"
             inkscape:connector-curvature="0" /></g><g
           id="g58"
           transform="translate(475.8652,264.7334)"><path
             d="M 0,0 0.555,0.556 C 2.727,1.198 3.301,3.184 2.693,5.474 1.771,5.521 0.85,5.583 -0.068,5.652 -0.213,5.663 -0.357,5.674 -0.5,5.686 -1.359,5.752 -2.219,5.825 -3.076,5.901 V 5.9 c -9.93,0.891 -19.641,2.227 -29.035,-1.577 -12.471,-5.051 -23.952,2.08 -37.403,0.122 -2.734,-0.398 -5.367,-1.607 -8.297,-1.121 -3.671,0.608 -6.818,3.85 -10.544,4.499 -7.87,1.37 -19.356,0.189 -25.633,-5.044 -3.33,-2.776 -3.43,-4.4 -8.311,-5.001 -3.123,-0.383 -6.781,-0.153 -9.943,0 -6.598,0.314 -12.871,1.667 -19.873,1.667 -4.231,0 -9.817,0.942 -13.92,-0.084 -3.279,-0.819 -6.49,-3.644 -9.631,-4.919 -6.885,-2.793 -8.736,0.5 -15.623,1.68 -6.178,1.056 -12.215,-1.282 -18.234,-1.68 -4.336,-0.287 -10.967,1.436 -13.606,-2.385 -0.001,0 -0.001,0 -0.001,0 -0.097,-0.14 -0.2,-0.271 -0.286,-0.426 -2.048,-3.714 0.277,-5.664 3.346,-7.058 v -28.106 c 0,-0.916 0.742,-1.658 1.658,-1.658 0.916,0 1.66,0.742 1.66,1.658 v 26.802 c 1.035,-0.384 2.012,-0.751 2.805,-1.146 v -21.316 c 0,-0.918 0.744,-1.661 1.66,-1.661 0.916,0 1.658,0.743 1.658,1.661 v 19.562 c 1.889,-1.025 3.588,-1.971 5.359,-2.801 v -28.224 c 0,-0.914 0.743,-1.658 1.659,-1.658 0.916,0 1.658,0.744 1.658,1.658 v 26.869 c 1.443,-0.5 3.008,-0.922 4.807,-1.252 5.857,-1.076 13.025,-0.137 18.595,-3.264 7.239,-4.064 9.41,-8.306 17.381,-10.06 4.328,-0.951 9.85,-3.086 14.865,-3.483 V -55.65 c 0,-0.916 0.743,-1.659 1.659,-1.659 0.916,0 1.66,0.743 1.66,1.659 v 13.839 c 0.283,0.034 0.568,0.067 0.845,0.118 1.264,0.234 2.498,0.742 3.704,1.406 V -66.5 c 0,-0.916 0.742,-1.66 1.658,-1.66 0.916,0 1.66,0.744 1.66,1.66 v 28.404 c 2.348,1.748 4.582,3.7 6.709,4.887 10.424,5.818 19.609,10.615 32.258,9.867 5.9,-0.349 9.328,-3.988 15.009,-5.558 5.586,-1.547 10.032,-4.149 14.444,-7.233 V -55.65 c 0,-0.916 0.744,-1.659 1.66,-1.659 0.916,0 1.658,0.743 1.658,1.659 v 17.127 c 1.57,-1.157 3.172,-2.356 4.85,-3.571 v -27.594 c 0,-0.914 0.742,-1.658 1.658,-1.658 0.916,0 1.658,0.744 1.658,1.658 v 25.446 c 0.791,-0.432 1.557,-0.789 2.299,-1.076 v -8.487 c 0,-0.916 0.742,-1.658 1.658,-1.658 0.916,0 1.66,0.742 1.66,1.658 v 7.629 c 8.153,-0.998 13.535,6.897 19.705,14.592 4.137,5.162 7.108,11.502 12.194,15.521 v -21.146 c 0,-0.916 0.742,-1.658 1.658,-1.658 0.916,0 1.66,0.742 1.66,1.658 v 23.251 c 0.871,0.423 1.811,0.773 2.807,1.06 v -12.571 c 0,-0.916 0.742,-1.66 1.658,-1.66 0.916,0 1.658,0.744 1.658,1.66 v 12.999 c 3.071,-0.123 4.871,-1.258 5.506,3.578 C -2.066,-3.681 -5.412,-3.693 0,0"
             style="fill:#005b77;fill-opacity:1;fill-rule:nonzero;stroke:none"
             id="path60"
             inkscape:connector-curvature="0" /></g><g
           id="g62"
           transform="translate(249.5273,260.6362)"><path
             d="m 0,0 c 2.423,4.395 9.396,2.514 13.893,2.811 6.019,0.398 12.056,2.736 18.234,1.679 6.886,-1.179 8.738,-4.472 15.623,-1.679 3.141,1.275 6.352,4.099 9.631,4.919 4.103,1.025 9.689,0.084 13.92,0.084 7.002,0 13.275,-1.353 19.873,-1.668 3.162,-0.152 6.819,-0.382 9.942,0 4.881,0.602 4.982,2.226 8.312,5.002 6.277,5.232 17.762,6.414 25.632,5.044 3.727,-0.65 6.874,-3.892 10.544,-4.499 2.931,-0.486 5.563,0.723 8.298,1.121 13.451,1.958 24.931,-5.173 37.403,-0.122 11.207,4.538 22.862,1.758 34.804,1.15 0.608,-2.29 0.034,-4.275 -2.138,-4.918 l -0.556,-0.555 c -5.411,-3.693 -2.065,-3.682 -2.751,-8.892 -0.636,-4.836 -2.436,-3.702 -5.506,-3.579 V -17.1 c 0,-0.916 -0.742,-1.66 -1.659,-1.66 -0.916,0 -1.658,0.744 -1.658,1.66 v 12.571 c -0.995,-0.287 -1.935,-0.637 -2.806,-1.061 v -23.25 c 0,-0.916 -0.744,-1.659 -1.66,-1.659 -0.916,0 -1.658,0.743 -1.658,1.659 v 21.145 c -5.086,-4.018 -8.057,-10.358 -12.194,-15.52 -6.169,-7.696 -11.552,-15.59 -19.706,-14.592 v -7.629 c 0,-0.916 -0.743,-1.658 -1.659,-1.658 -0.916,0 -1.658,0.742 -1.658,1.658 v 8.486 c -0.743,0.287 -1.509,0.645 -2.299,1.076 v -25.445 c 0,-0.914 -0.742,-1.658 -1.659,-1.658 -0.915,0 -1.658,0.744 -1.658,1.658 v 27.594 c -1.677,1.215 -3.28,2.414 -4.849,3.57 v -17.127 c 0,-0.916 -0.742,-1.658 -1.659,-1.658 -0.916,0 -1.659,0.742 -1.659,1.658 v 19.518 c -4.412,3.084 -8.858,5.685 -14.444,7.232 -5.681,1.571 -9.109,5.209 -15.009,5.559 -12.649,0.748 -21.834,-4.049 -32.258,-9.867 -2.127,-1.188 -4.361,-3.139 -6.709,-4.887 v -28.404 c 0,-0.916 -0.744,-1.661 -1.66,-1.661 -0.916,0 -1.658,0.745 -1.658,1.661 v 26.213 c -1.207,-0.665 -2.441,-1.172 -3.705,-1.407 -0.277,-0.05 -0.561,-0.084 -0.845,-0.117 v -13.84 c 0,-0.916 -0.743,-1.658 -1.66,-1.658 -0.916,0 -1.658,0.742 -1.658,1.658 v 13.805 c -5.015,0.396 -10.538,2.531 -14.865,3.482 -7.972,1.754 -10.143,5.996 -17.381,10.061 -5.57,3.127 -12.738,2.187 -18.595,3.264 -1.799,0.33 -3.365,0.752 -4.807,1.252 v -26.87 c 0,-0.914 -0.742,-1.658 -1.659,-1.658 -0.916,0 -1.658,0.744 -1.658,1.658 v 28.225 c -1.772,0.83 -3.471,1.775 -5.359,2.801 v -19.563 c 0,-0.918 -0.742,-1.66 -1.659,-1.66 -0.916,0 -1.659,0.742 -1.659,1.66 v 21.317 c -0.793,0.394 -1.77,0.761 -2.806,1.145 v -26.802 c 0,-0.916 -0.743,-1.658 -1.66,-1.658 -0.916,0 -1.658,0.742 -1.658,1.658 V -7.059 C 0.277,-5.664 -2.048,-3.715 0,0"
             style="fill:#ffffff;fill-opacity:1;fill-rule:nonzero;stroke:none"
             id="path64"
             inkscape:connector-curvature="0" /></g><g
           id="g66"
           transform="translate(249.813,261.062)"><path
             d="m 0,0 c 0.005,-0.01 0.011,-0.016 0.016,-0.025 1.132,-2.041 1.653,-3.674 4.152,-4.258 2.031,-0.477 4.312,0.275 6.349,-0.162 2.225,-0.479 2.691,-2.379 5.324,-2.213 2.205,0.14 4.629,0.951 7.141,0.455 2.922,-0.576 2.801,-3.612 5.484,-3.774 2.229,-0.137 3.073,1.836 5.08,2.213 3.099,0.58 4.108,-2.326 6.192,-3.848 2.144,-1.562 6.064,-2.851 8.647,-3.234 3.6,-0.535 9.788,-0.608 12.868,1.318 2.104,1.315 2.844,3.779 5.114,5.106 3.148,1.84 7.33,0.953 10.552,-0.659 2.422,-1.212 4.051,-2.357 5.725,-4.515 1.352,-1.746 1.758,-2.42 4.199,-2.574 2.121,-0.137 4.651,0.211 6.174,1.546 1.515,1.331 1.943,2.799 4.23,3.596 2.602,0.906 4.285,-0.726 6.92,-0.721 2.729,0.008 3.436,1.274 5.241,2.935 2.201,2.023 4.099,3.679 5.752,6.373 2.541,4.142 5.412,5.302 10.234,5.3 7.552,-0.007 13.545,-4.681 16.869,-11.316 1.643,-3.278 2.211,-3.116 5.148,-1.465 3.942,2.215 4.84,1.014 7.756,-1.37 2.615,-2.136 6.387,-3.804 9.716,-2.039 1.788,0.95 2.852,2.811 3.885,4.229 1.606,2.202 2.415,2.153 5.54,2.002 3.216,-0.156 4.414,-0.695 6.242,-3.277 1.551,-2.19 2.506,-2.754 5.539,-2.477 3.567,0.328 3.494,3.158 5.953,5.096 0.883,0.696 2.559,0.903 3.293,1.721 0.65,0.721 0.674,2.375 1.362,3.152 2.279,2.578 4.273,1.438 6.984,2.199 2.363,0.665 5.111,3.235 6.072,5.465 0.469,1.09 0.7,2.971 1.937,3.562 1.405,0.672 1.618,-0.262 3.087,-0.188 3.078,0.155 3.318,3.476 4.877,5.274 0.115,0.134 0.252,0.274 0.4,0.417 1.916,-0.172 3.839,-0.329 5.77,-0.427 0.607,-2.291 0.033,-4.276 -2.139,-4.918 l -0.556,-0.556 c -5.411,-3.693 -2.065,-3.681 -2.751,-8.892 -0.635,-4.836 -2.436,-3.701 -5.505,-3.578 v -12.999 c 0,-0.916 -0.743,-1.66 -1.66,-1.66 -0.916,0 -1.658,0.744 -1.658,1.66 v 12.571 c -0.995,-0.287 -1.934,-0.637 -2.805,-1.061 v -23.25 c 0,-0.916 -0.745,-1.658 -1.661,-1.658 -0.916,0 -1.658,0.742 -1.658,1.658 v 21.145 c -5.086,-4.018 -8.056,-10.358 -12.193,-15.52 -6.17,-7.695 -11.553,-15.59 -19.706,-14.592 v -7.629 c 0,-0.916 -0.743,-1.658 -1.659,-1.658 -0.916,0 -1.659,0.742 -1.659,1.658 v 8.487 c -0.743,0.287 -1.508,0.644 -2.298,1.076 v -25.446 c 0,-0.914 -0.743,-1.658 -1.66,-1.658 -0.915,0 -1.658,0.744 -1.658,1.658 v 27.594 c -1.677,1.215 -3.279,2.414 -4.848,3.57 v -17.127 c 0,-0.916 -0.743,-1.658 -1.66,-1.658 -0.916,0 -1.659,0.742 -1.659,1.658 v 19.518 c -4.412,3.084 -8.857,5.686 -14.443,7.232 -5.682,1.571 -9.11,5.209 -15.01,5.559 -12.648,0.748 -21.834,-4.049 -32.258,-9.867 -2.127,-1.188 -4.361,-3.139 -6.709,-4.887 v -28.404 c 0,-0.916 -0.744,-1.66 -1.66,-1.66 -0.916,0 -1.658,0.744 -1.658,1.66 v 26.213 c -1.206,-0.664 -2.441,-1.172 -3.704,-1.406 -0.278,-0.051 -0.562,-0.084 -0.846,-0.118 v -13.84 c 0,-0.916 -0.743,-1.658 -1.66,-1.658 -0.916,0 -1.657,0.742 -1.657,1.658 v 13.805 c -5.016,0.397 -10.538,2.531 -14.866,3.483 -7.971,1.753 -10.143,5.996 -17.38,10.06 -5.571,3.127 -12.739,2.188 -18.596,3.264 -1.799,0.33 -3.364,0.752 -4.807,1.252 v -26.869 c 0,-0.914 -0.742,-1.659 -1.659,-1.659 -0.916,0 -1.658,0.745 -1.658,1.659 v 28.224 c -1.772,0.83 -3.471,1.776 -5.359,2.801 V -31.25 c 0,-0.918 -0.742,-1.661 -1.659,-1.661 -0.916,0 -1.659,0.743 -1.659,1.661 V -9.934 C 8.39,-9.54 7.414,-9.172 6.377,-8.789 V -35.59 c 0,-0.916 -0.743,-1.659 -1.66,-1.659 -0.916,0 -1.658,0.743 -1.658,1.659 V -7.484 C -0.008,-6.09 -2.334,-4.141 -0.286,-0.426 -0.2,-0.271 -0.097,-0.141 0,0"
             style="fill:#a7d7ea;fill-opacity:1;fill-rule:nonzero;stroke:none"
             id="path68"
             inkscape:connector-curvature="0" /></g><g
           id="g70"
           transform="translate(217.2793,234.5518)"><path
             d="M 0,0 C 0.623,0 1.127,0.504 1.127,1.127 V 11.76 c 10e-4,10e-4 0.002,10e-4 0.003,0.003 0.202,0.193 0.407,0.384 0.615,0.574 0.067,0.062 0.136,0.123 0.204,0.184 0.183,0.164 0.366,0.326 0.555,0.485 0.107,0.091 0.219,0.177 0.329,0.265 0.249,0.202 0.504,0.397 0.766,0.585 0.18,0.13 0.36,0.26 0.547,0.383 0.127,0.084 0.261,0.162 0.392,0.242 0.191,0.117 0.384,0.23 0.583,0.338 0.132,0.072 0.267,0.141 0.403,0.209 0.223,0.112 0.454,0.215 0.688,0.314 0.122,0.052 0.242,0.106 0.367,0.154 0.366,0.14 0.742,0.27 1.138,0.378 0,0 0.014,0.006 0.038,0.017 l 0.003,10e-4 c 0.023,0.011 0.058,0.026 0.101,0.046 0.008,0.004 0.016,0.008 0.024,0.012 0.041,0.018 0.087,0.04 0.141,0.065 0.013,0.006 0.025,0.012 0.039,0.019 0.059,0.028 0.124,0.058 0.196,0.092 0.011,0.006 0.02,0.011 0.032,0.016 0.078,0.038 0.163,0.079 0.253,0.124 0.008,0.004 0.016,0.007 0.024,0.011 0.61,0.3 1.467,0.745 2.304,1.254 l 0.004,0.003 c 2.385,1.453 4.573,3.423 0.212,4.021 -6.769,1.727 -10.838,1.461 -16.763,5.71 -4.98,3.571 -11.36,6.196 -17.747,4.754 -6.834,-1.544 -8.835,-4.922 -16.211,-1.717 -5.675,2.467 -9.966,7.552 -16.631,6.909 -7.035,-0.681 -8.974,-6.216 -17.225,-5.19 -3.357,0.416 -5.745,2.472 -8.74,2.925 -4.465,0.678 -6.53,-3.656 -10.367,-3.525 -4.869,0.166 -13.302,9.726 -17.879,12.696 -5.951,3.863 -11.942,7.549 -19.087,8.085 -10.246,0.769 -11.845,-8.487 -20.889,-10.25 -4.287,-0.835 -8.736,0.207 -12.85,0.705 -3.778,0.457 -8.773,-0.354 -11.847,-2.754 -2.844,-2.22 -0.718,-6.211 -1.643,-9.17 -0.298,-0.956 -0.817,-1.785 -1.407,-2.574 -0.928,-1.242 -2.041,-2.381 -2.837,-3.713 -0.038,-0.062 -0.074,-0.126 -0.11,-0.189 -0.165,-0.292 -0.32,-0.589 -0.448,-0.903 -1.008,-2.477 -1.069,-5.383 -2.988,-7.48 -3.766,-4.12 -5.123,-1.879 -6.065,-7.499 -1.218,-7.25 5.369,-10.035 3.459,-17.746 -1.51,-6.1 -2.358,-8.242 -1.744,-14.518 0.419,-4.289 -1.715,-12.093 0.407,-15.756 1.071,-1.847 3.688,-1.335 4.925,-3.13 1.459,-2.112 1.701,-5.397 2.596,-7.797 4.011,-10.739 15.18,-22.117 15.139,-3.334 -0.012,5.412 -0.48,10.279 -0.718,15.301 -0.364,7.677 6.443,5.589 10.421,11.216 3.074,4.346 1.708,11.145 5.982,14.813 3.184,2.732 11.033,7.299 15.294,8.248 6.495,1.449 13.733,-0.451 20.2,0.58 5.412,0.863 10.028,2.092 15.686,1.137 6.142,-1.034 11.436,-3.369 17.907,-3.43 2.387,-0.023 5.164,0.437 7.497,-0.002 3.158,-0.596 5.758,-2.998 8.664,-3.791 0.445,-0.122 0.871,-0.208 1.288,-0.277 0.123,-0.022 0.247,-0.045 0.367,-0.062 0.318,-0.043 0.628,-0.07 0.932,-0.088 0.223,-0.013 0.444,-0.022 0.66,-0.022 v -10.518 c 0,-0.623 0.505,-1.127 1.127,-1.127 0.622,0 1.127,0.504 1.127,1.127 v 10.738 c 0.084,0.018 0.163,0.047 0.247,0.067 0.27,0.065 0.539,0.134 0.8,0.219 0.316,0.1 0.625,0.217 0.931,0.341 0.005,0.002 0.01,0.004 0.015,0.006 v -5.134 c 0,-0.624 0.504,-1.127 1.127,-1.127 0.622,0 1.127,0.503 1.127,1.127 v 6.257 c 0.004,0.003 0.008,0.005 0.013,0.008 0.842,0.492 1.67,1.035 2.504,1.594 0.034,0.022 0.068,0.044 0.102,0.066 v -28.689 c 0,-0.623 0.504,-1.127 1.126,-1.127 0.623,0 1.127,0.504 1.127,1.127 v 30.156 c 0.326,0.202 0.657,0.4 0.993,0.592 0.065,0.036 0.131,0.071 0.196,0.107 0.283,0.159 0.569,0.314 0.861,0.461 0.16,0.081 0.326,0.154 0.489,0.23 0.215,0.101 0.427,0.206 0.648,0.3 0.397,0.167 0.802,0.324 1.221,0.462 3.215,1.067 6.495,0.858 9.937,1.016 5.674,0.26 4.516,1.016 8.478,3.606 0.386,0.252 0.766,0.477 1.142,0.69 0.096,0.054 0.19,0.106 0.285,0.157 0.347,0.189 0.691,0.365 1.03,0.524 0.026,0.011 0.052,0.026 0.077,0.038 0.366,0.168 0.726,0.314 1.084,0.45 0.086,0.033 0.172,0.063 0.258,0.095 0.319,0.115 0.635,0.22 0.95,0.313 0.04,0.013 0.08,0.027 0.12,0.038 0.352,0.102 0.702,0.188 1.05,0.266 0.078,0.017 0.157,0.033 0.235,0.05 0.305,0.063 0.609,0.12 0.912,0.169 0.048,0.007 0.096,0.017 0.145,0.025 0.347,0.053 0.694,0.098 1.041,0.135 0.071,0.008 0.142,0.014 0.213,0.021 0.303,0.031 0.606,0.057 0.909,0.079 0.055,0.004 0.11,0.008 0.165,0.012 0.351,0.023 0.703,0.043 1.057,0.06 0.072,0.003 0.146,0.005 0.218,0.008 0.294,0.013 0.588,0.025 0.885,0.035 0.384,0.013 0.771,0.026 1.162,0.04 V -0.49 c 0,-0.623 0.505,-1.127 1.127,-1.127 0.623,0 1.127,0.504 1.127,1.127 v 5.409 c 0.521,0.035 1.049,0.077 1.591,0.136 0.017,0.002 0.032,0.002 0.049,0.004 V -13.4 c 0,-0.623 0.505,-1.127 1.127,-1.127 0.622,0 1.127,0.504 1.127,1.127 V 5.393 c 0.188,0.034 0.371,0.06 0.562,0.099 0.327,0.067 0.637,0.154 0.94,0.251 0.259,0.079 0.507,0.171 0.753,0.268 v -31.128 c 0,-0.623 0.504,-1.127 1.126,-1.127 0.623,0 1.127,0.504 1.127,1.127 V 7.216 c 0.991,0.68 1.893,1.479 2.768,2.328 V 1.127 C -1.126,0.504 -0.622,0 0,0"
             style="fill:#005b77;fill-opacity:1;fill-rule:nonzero;stroke:none"
             id="path72"
             inkscape:connector-curvature="0" /></g><g
           id="g74"
           transform="translate(25.4263,214.9346)"><path
             d="m 0,0 c -0.614,6.275 0.233,8.418 1.744,14.518 1.909,7.711 -4.678,10.496 -3.46,17.746 0.943,5.619 2.3,3.379 6.066,7.498 1.919,2.098 1.98,5.004 2.988,7.481 1.124,2.763 3.91,4.524 4.802,7.379 0.925,2.959 -1.202,6.949 1.642,9.17 3.075,2.399 8.07,3.211 11.848,2.754 4.114,-0.498 8.562,-1.54 12.849,-0.705 9.044,1.763 10.644,11.018 20.889,10.25 7.146,-0.536 13.137,-4.222 19.088,-8.085 4.576,-2.97 13.01,-12.53 17.879,-12.696 3.837,-0.131 5.901,4.203 10.367,3.525 2.994,-0.453 5.383,-2.51 8.739,-2.926 8.251,-1.025 10.191,4.51 17.226,5.191 6.665,0.643 10.956,-4.443 16.631,-6.91 7.376,-3.205 9.377,0.173 16.211,1.717 6.387,1.443 12.766,-1.182 17.747,-4.754 5.925,-4.248 9.994,-3.983 16.763,-5.709 7.173,-0.985 -3.372,-5.682 -3.372,-5.682 -6.925,-1.887 -8.936,-9.035 -15.556,-10.381 -7.641,-1.553 -12.725,0.633 -19.649,-3.891 -3.962,-2.59 -2.803,-3.345 -8.477,-3.605 -3.443,-0.158 -6.722,0.051 -9.938,-1.016 -7.036,-2.334 -10.673,-9.099 -19.027,-6.814 -2.906,0.793 -5.506,3.195 -8.664,3.791 -2.333,0.439 -5.11,-0.022 -7.497,0.002 -6.471,0.06 -11.766,2.396 -17.907,3.429 C 84.273,22.232 79.657,21.004 74.246,20.141 67.778,19.109 60.541,21.01 54.046,19.561 49.785,18.611 41.936,14.045 38.752,11.313 34.478,7.645 35.844,0.846 32.77,-3.5 28.792,-9.127 21.984,-7.039 22.349,-14.717 c 0.238,-5.021 0.706,-9.888 0.717,-15.301 0.041,-18.783 -11.128,-7.404 -15.138,3.334 -0.896,2.401 -1.137,5.686 -2.596,7.797 -1.237,1.795 -3.854,1.283 -4.926,3.131 C -1.715,-12.094 0.419,-4.289 0,0"
             style="fill:#ffffff;fill-opacity:1;fill-rule:nonzero;stroke:none"
             id="path76"
             inkscape:connector-curvature="0" /></g><g
           id="g78"
           transform="translate(227.1172,257.7202)"><path
             d="m 0,0 c -0.014,-0.002 -0.03,-0.006 -0.044,-0.008 -3.153,-0.373 -6.429,0.279 -9.593,0 -3.958,-0.347 -5.051,-2.297 -7.984,-4.658 -3.839,-3.09 -5.51,-1.543 -9.682,-1.342 -7.228,0.35 -13.065,0.209 -19,-3.91 -3.463,-2.403 -5.922,-5.547 -10.576,-4.846 -3.458,0.521 -6.222,2.082 -9.832,2.424 -3.453,0.326 -9.456,1.488 -12.867,0.332 -3.228,-1.094 -3.064,-5.317 -7.384,-5.666 -3.439,-0.28 -6.256,1.654 -10.058,1.666 -2.151,0.008 -3.764,-0.95 -5.748,-0.998 -2.674,-0.065 -4.495,1.48 -6.796,2.584 -3.277,1.572 -6.734,2.019 -10.381,1.513 -2.051,-0.285 -4.035,-0.888 -6.2,-1.099 -3.271,-0.317 -2.602,-0.25 -4.901,1.269 -6.59,4.352 -15.307,3.545 -22.843,4.998 -6.928,1.334 -9.965,-6.724 -16.414,-7.933 -6.301,-1.182 -13.253,-1.354 -13.384,6.3 -2.738,0.28 -6.283,-4.089 -8.55,-2.232 -2.224,1.822 0.01,5.797 0.861,7.358 0.698,1.281 1.837,2.299 1.747,3.908 -0.104,1.854 -1.727,2.387 -2.032,3.983 -0.271,1.425 1.487,3.084 0.958,4.941 -0.071,0.251 -0.158,0.474 -0.251,0.684 -1.172,-1.57 -2.65,-2.971 -3.399,-4.811 -1.008,-2.477 -1.069,-5.383 -2.988,-7.48 -3.766,-4.12 -5.123,-1.879 -6.066,-7.499 -1.218,-7.25 5.369,-10.035 3.46,-17.746 -1.511,-6.1 -2.358,-8.242 -1.744,-14.518 0.419,-4.289 -1.715,-12.093 0.406,-15.756 1.072,-1.847 3.689,-1.335 4.926,-3.13 1.459,-2.112 1.7,-5.397 2.596,-7.797 4.011,-10.739 15.18,-22.117 15.138,-3.334 -0.011,5.412 -0.479,10.279 -0.717,15.301 -0.365,7.677 6.443,5.589 10.421,11.216 3.074,4.346 1.708,11.145 5.982,14.813 3.184,2.732 11.033,7.299 15.294,8.248 6.495,1.449 13.732,-0.451 20.2,0.58 5.411,0.863 10.028,2.092 15.686,1.137 6.141,-1.034 11.436,-3.369 17.907,-3.43 2.387,-0.023 5.164,0.438 7.497,-0.002 3.158,-0.596 5.758,-2.998 8.664,-3.791 1.17,-0.32 2.239,-0.447 3.247,-0.449 v -10.518 c 0,-0.623 0.505,-1.127 1.127,-1.127 0.622,0 1.127,0.504 1.127,1.127 v 10.739 c 0.693,0.148 1.351,0.371 1.993,0.632 v -5.134 c 0,-0.623 0.504,-1.127 1.127,-1.127 0.622,0 1.127,0.504 1.127,1.127 v 6.257 c 0.88,0.514 1.745,1.084 2.618,1.668 v -28.689 c 0,-0.623 0.505,-1.127 1.127,-1.127 0.623,0 1.127,0.504 1.127,1.127 v 30.156 c 1.357,0.842 2.79,1.615 4.407,2.152 3.216,1.067 6.496,0.858 9.938,1.016 5.674,0.26 4.516,1.016 8.477,3.606 4.702,3.072 8.557,3.05 12.939,3.205 v -5.297 c 0,-0.623 0.505,-1.127 1.127,-1.127 0.622,0 1.127,0.504 1.127,1.127 v 5.41 c 0.536,0.035 1.08,0.078 1.639,0.139 v -18.459 c 0,-0.623 0.505,-1.127 1.127,-1.127 0.623,0 1.128,0.504 1.128,1.127 v 18.793 c 0.188,0.035 0.37,0.06 0.562,0.099 0.603,0.123 1.158,0.309 1.692,0.52 v -31.129 c 0,-0.623 0.505,-1.127 1.127,-1.127 0.622,0 1.127,0.504 1.127,1.127 v 32.334 c 0.991,0.678 1.892,1.478 2.767,2.328 v -8.418 c 0,-0.623 0.505,-1.127 1.127,-1.127 0.622,0 1.127,0.504 1.127,1.127 v 10.633 c 1.816,1.741 3.803,3.354 6.59,4.114 0,0 3.426,1.527 5.043,3.023"
             style="fill:#a7d7ea;fill-opacity:1;fill-rule:nonzero;stroke:none"
             id="path80"
             inkscape:connector-curvature="0" /></g><g
           id="g82"
           transform="translate(317.0664,125.9678)"><path
             d="m 0,0 c 3.32,-3.626 6.344,-7.615 12.291,-7.373 6.145,0.252 5.639,4.135 10.313,6.506 10.5,5.327 32.521,1.083 42.832,-3.5 11.996,-5.331 25.613,-22.708 37.584,-8.851 4.816,5.576 4.109,13.543 10.347,17.817 6.129,4.199 11.262,-0.271 18.16,-2.431 7.592,-2.377 20.256,-3.04 26.686,2.611 2.867,2.519 5.846,10.113 3.865,14.24 -0.242,0.504 -0.658,0.938 -1.156,1.333 -2.826,1.005 -6.541,0.651 -9.793,1.491 -0.381,0.097 -0.748,0.206 -1.104,0.321 -0.054,0.018 -0.105,0.038 -0.158,0.056 -0.305,0.101 -0.605,0.208 -0.896,0.322 -0.035,0.014 -0.069,0.029 -0.104,0.043 -0.308,0.123 -0.611,0.251 -0.904,0.387 -0.01,0.005 -0.018,0.009 -0.027,0.013 -0.317,0.147 -0.624,0.3 -0.924,0.459 -3.401,1.806 -5.875,4.412 -8.922,6.892 -1.289,1.049 -2.694,1.858 -4.17,2.476 -5.752,1.317 -10.494,0.614 -16.609,-0.178 -4.045,-0.524 -8.465,-1.013 -12.438,0.13 -3.943,1.134 -7.18,3.002 -10.639,4.877 -2.386,1.292 -4.724,2.228 -7.232,2.899 -0.186,0.004 -0.375,0.002 -0.563,0.004 -7.916,-3.217 -15.572,-9.532 -24.9,-7.72 -8.543,1.661 -16.695,10.365 -26.141,7.595 -2.179,-0.64 -4.023,-1.766 -5.761,-3.027 -2.297,-2.749 -4.297,-5.85 -7.285,-7.981 -7.43,-5.298 -18.129,-3.19 -27.047,-3.24 -5.83,-0.032 -11.08,0.254 -16.621,1.901 -2.205,0.657 -4.479,1.459 -6.797,2.105 -0.991,0.186 -1.963,0.417 -2.914,0.7 -1.653,0.324 -3.325,0.51 -5.008,0.444 -7.934,-0.311 -17.404,-2.936 -24.358,1.319 -3.611,0.547 -6.894,1.105 -9.269,1.312 -10.061,0.876 -14.916,6.908 -25.441,5.256 -3.671,-0.576 -5.876,-2.314 -10.134,-2.275 -5.27,0.048 -9.36,1.507 -14.671,1.796 -10.862,0.589 -17.988,-5.823 -28.179,-5.988 -8.532,-0.137 -16.598,2.92 -24.607,4.291 -10.502,1.799 -15.091,0.473 -24.034,-3.274 -6.017,-2.521 -10.646,-6.682 -18.19,-6.404 -8.765,0.322 -17.078,4.819 -26.86,4.203 -6.438,-0.406 -15.449,-1.099 -21.786,-2.378 -4.41,-0.89 -5.615,-4.023 -9.263,-5.462 -2.554,-1.009 -5.852,-0.251 -8.894,-0.557 -3.769,-0.379 -6.975,-2.032 -8.213,-3.926 l -10e-4,-0.003 c -0.081,-0.124 -0.153,-0.248 -0.217,-0.374 -0.002,-0.004 -0.004,-0.009 -0.007,-0.014 -0.061,-0.122 -0.113,-0.245 -0.157,-0.368 -0.003,-0.008 -0.006,-0.017 -0.009,-0.025 -0.041,-0.119 -0.074,-0.238 -0.099,-0.358 -0.002,-0.013 -0.005,-0.027 -0.008,-0.039 -0.022,-0.115 -0.035,-0.23 -0.041,-0.344 -10e-4,-0.018 -0.002,-0.035 -0.003,-0.053 -0.003,-0.109 0.002,-0.219 0.014,-0.327 0.003,-0.022 0.004,-0.046 0.007,-0.068 0.015,-0.104 0.038,-0.206 0.066,-0.309 0.008,-0.027 0.014,-0.055 0.023,-0.082 0.031,-0.098 0.07,-0.193 0.114,-0.29 0.014,-0.031 0.027,-0.063 0.044,-0.096 0.045,-0.089 0.1,-0.179 0.158,-0.268 0.024,-0.036 0.045,-0.072 0.071,-0.109 0.06,-0.084 0.128,-0.167 0.2,-0.249 0.033,-0.04 0.065,-0.079 0.102,-0.118 0.073,-0.078 0.155,-0.154 0.239,-0.23 0.046,-0.042 0.088,-0.084 0.138,-0.126 0.085,-0.071 0.181,-0.142 0.276,-0.212 0.06,-0.044 0.115,-0.088 0.178,-0.131 0.097,-0.066 0.206,-0.131 0.313,-0.195 0.074,-0.044 0.142,-0.089 0.22,-0.132 0.11,-0.063 0.232,-0.121 0.352,-0.181 0.087,-0.044 0.169,-0.089 0.262,-0.132 0.126,-0.057 0.265,-0.113 0.401,-0.17 0.099,-0.041 0.191,-0.083 0.295,-0.123 0.156,-0.059 0.326,-0.116 0.493,-0.172 0.097,-0.034 0.187,-0.069 0.288,-0.101 0.276,-0.088 0.565,-0.172 0.87,-0.253 4.665,-1.231 8.809,0.376 12.693,2.104 0.379,-0.082 0.755,-0.17 1.123,-0.283 4.643,-1.415 6.005,-6.59 10.006,-9.053 10.27,-6.324 16.812,4.315 26.452,5.434 7.117,0.825 15.127,0.975 22.191,1.197 9.995,0.316 13.624,-8.005 21.912,-8.728 7.028,-0.614 10.272,6.935 19.486,4.101 8.167,-2.514 7.864,-10.058 16.251,-11.54 9.683,-1.71 10.894,6.525 19.497,5.389 4.074,-0.536 6.172,-2.339 10.752,-2.994 4.797,-0.686 9.923,0.479 14.469,-1.796 3.32,-1.662 5.598,-5.528 8.914,-7.533 4.235,-2.559 9.795,-4.037 14.582,-5.775 9.41,-3.416 15.687,-3.122 25.401,-0.313 9.189,2.657 15.488,8.254 21.783,14.686 5.867,5.995 12.283,7.178 21.752,7.918 C -7.74,7.202 -5.73,6.257 0,0"
             style="fill:#005b77;fill-opacity:1;fill-rule:nonzero;stroke:none"
             id="path84"
             inkscape:connector-curvature="0" /></g><g
           id="g86"
           transform="translate(476.2227,149.2578)"><path
             d="m 0,0 c -0.242,0.505 -0.658,0.938 -1.157,1.333 -2.825,1.006 -6.541,0.651 -9.793,1.491 -5.808,1.5 -8.892,5.118 -13.039,8.493 -1.289,1.049 -2.693,1.859 -4.17,2.476 -5.752,1.317 -10.494,0.614 -16.61,-0.178 -4.044,-0.523 -8.464,-1.012 -12.437,0.13 -3.942,1.135 -7.179,3.002 -10.639,4.877 -2.385,1.292 -4.724,2.229 -7.231,2.899 -0.187,0.004 -0.376,0.002 -0.564,0.004 -7.915,-3.216 -15.572,-9.532 -24.899,-7.719 -8.543,1.661 -16.696,10.365 -26.142,7.594 -2.178,-0.639 -4.022,-1.765 -5.76,-3.027 -2.298,-2.749 -4.297,-5.85 -7.287,-7.98 -7.428,-5.298 -18.128,-3.191 -27.046,-3.241 -5.83,-0.032 -11.08,0.254 -16.622,1.902 -2.205,0.656 -4.477,1.459 -6.795,2.104 -0.991,0.187 -1.964,0.417 -2.914,0.7 -1.654,0.325 -3.326,0.51 -5.008,0.445 -7.935,-0.312 -17.406,-2.937 -24.358,1.318 -3.612,0.547 -6.894,1.106 -9.269,1.313 -10.061,0.876 -14.917,6.908 -25.442,5.255 -3.671,-0.576 -5.875,-2.314 -10.134,-2.275 -5.27,0.049 -9.36,1.508 -14.67,1.796 -10.863,0.59 -17.988,-5.822 -28.18,-5.987 -8.532,-0.138 -16.598,2.92 -24.606,4.291 -10.503,1.798 -15.092,0.472 -24.035,-3.275 -6.016,-2.52 -10.646,-6.681 -18.19,-6.404 -8.764,0.322 -17.077,4.819 -26.86,4.203 -6.437,-0.405 -15.449,-1.099 -21.786,-2.378 -4.41,-0.889 -5.615,-4.022 -9.263,-5.462 -2.553,-1.009 -5.851,-0.251 -8.893,-0.556 -7.814,-0.787 -13.233,-7.043 -3.632,-9.579 4.666,-1.231 8.809,0.376 12.694,2.104 0.379,-0.081 0.755,-0.17 1.122,-0.282 4.643,-1.415 6.006,-6.59 10.007,-9.054 10.27,-6.323 16.812,4.315 26.451,5.435 7.117,0.825 15.128,0.974 22.192,1.197 9.994,0.315 13.623,-8.006 21.912,-8.729 7.028,-0.614 10.272,6.936 19.485,4.101 8.168,-2.514 7.864,-10.058 16.252,-11.539 9.682,-1.71 10.894,6.524 19.497,5.389 4.073,-0.537 6.172,-2.339 10.752,-2.995 4.796,-0.685 9.922,0.479 14.468,-1.795 3.321,-1.663 5.599,-5.529 8.914,-7.534 4.236,-2.558 9.796,-4.037 14.582,-5.774 9.411,-3.416 15.687,-3.122 25.401,-0.314 9.19,2.658 15.488,8.254 21.784,14.686 5.867,5.995 12.283,7.179 21.752,7.918 10.348,0.807 12.356,-0.139 18.087,-6.396 3.32,-3.626 6.345,-7.615 12.292,-7.373 6.143,0.252 5.638,4.135 10.311,6.506 10.5,5.327 32.523,1.083 42.833,-3.5 11.996,-5.331 25.613,-22.708 37.583,-8.85 4.818,5.576 4.111,13.543 10.348,17.816 6.129,4.199 11.262,-0.27 18.16,-2.431 7.592,-2.377 20.257,-3.04 26.687,2.612 C -0.999,-11.721 1.98,-4.127 0,0"
             style="fill:#ffffff;fill-opacity:1;fill-rule:nonzero;stroke:none"
             id="path88"
             inkscape:connector-curvature="0" /></g><g
           id="g90"
           transform="translate(476.2227,149.2578)"><path
             d="m 0,0 c -0.242,0.505 -0.658,0.938 -1.157,1.333 -2.825,1.006 -6.541,0.651 -9.793,1.491 -1.541,0.399 -2.888,0.948 -4.116,1.602 -0.71,-0.884 -1.358,-1.7 -2.667,-2.314 -1.531,-0.716 -4.356,0.63 -5.74,-0.055 -2.491,-1.238 -3.368,-2.702 -2.693,-5.307 -8.946,-0.417 -16.328,2.154 -24.579,2.633 -10.656,0.616 -7.617,-7.273 -13.555,-9.676 -5.836,-2.362 -10.407,1.567 -15.885,-2.624 -4.083,-3.125 -1.646,-4.619 -8.211,-3.781 -2.197,0.28 -4.464,1.543 -6.601,2.543 -6.042,2.831 -10.587,8.378 -18.011,9.806 -9.59,1.846 -16.937,-2.775 -24.486,-6.35 -5.581,-2.643 -12.174,-4.189 -17.672,-0.828 -3.233,1.976 -4.516,5.439 -8.542,6.602 -2.175,0.629 -6.211,0.108 -8.429,0.381 -6.53,0.806 -11.85,0.667 -18.664,0.117 -3.153,-0.254 -6.627,0.549 -9.727,0.027 -4.527,-0.765 -3.204,-1.051 -6.342,-3.652 -4.715,-3.909 -9.903,-3.334 -14.445,-7.577 -3.839,-3.586 -6.153,-7.594 -13.584,-4.838 -3.575,1.325 -1.67,3.725 -6.486,3.767 -2.838,0.024 -3.841,-2.52 -6.507,-3.128 -6.529,-1.488 -11.608,2.788 -14.95,6.295 -4.867,5.106 -8.12,8.908 -17.458,7.409 -6.661,-1.069 -11.287,-3.714 -18.679,-1.886 -2.633,0.652 -5.715,3.168 -8.042,3.503 -3.56,0.512 -4.57,-1.102 -6.989,-1.419 -2.521,-0.33 -6.82,-0.589 -9.11,0.446 -2.642,1.194 -2.83,4.539 -4.995,5.932 -5.357,3.447 -11.543,1.361 -16.214,-0.681 -3.664,-1.603 -2.689,-2.313 -7.456,-2.567 -3.048,-0.163 -6.48,0.34 -9.599,0.534 -6.541,0.408 -9.167,2.121 -14.917,3.863 -7.792,2.359 -13.01,-1.508 -20.753,-1.19 -7.098,0.293 -11.318,2.23 -18.143,0.119 -3.426,-1.059 -4.37,-2.338 -8.467,-2.257 -3.939,0.079 -3.563,1.173 -6.594,2.151 -6.652,2.145 -9.786,-0.084 -16.689,-0.547 -2.049,-0.138 -3.742,-0.013 -5.065,0.339 -1.328,-2.031 -0.388,-4.341 4.581,-5.653 4.666,-1.231 8.809,0.376 12.694,2.104 0.379,-0.081 0.755,-0.17 1.122,-0.282 4.643,-1.415 6.006,-6.59 10.007,-9.054 10.27,-6.323 16.812,4.315 26.451,5.435 7.117,0.825 15.128,0.974 22.192,1.197 9.994,0.315 13.623,-8.006 21.912,-8.729 7.028,-0.614 10.272,6.936 19.485,4.101 8.168,-2.514 7.864,-10.058 16.252,-11.539 9.682,-1.71 10.894,6.524 19.497,5.389 4.073,-0.537 6.172,-2.339 10.752,-2.995 4.796,-0.685 9.922,0.479 14.468,-1.795 3.321,-1.663 5.599,-5.529 8.914,-7.534 4.236,-2.558 9.796,-4.037 14.582,-5.774 9.411,-3.416 15.687,-3.122 25.401,-0.314 9.19,2.658 15.488,8.254 21.784,14.686 5.867,5.995 12.283,7.179 21.752,7.918 10.348,0.807 12.356,-0.139 18.087,-6.396 3.32,-3.626 6.345,-7.615 12.292,-7.373 6.143,0.252 5.638,4.135 10.311,6.506 10.5,5.327 32.523,1.083 42.833,-3.5 11.996,-5.331 25.613,-22.708 37.583,-8.85 4.818,5.576 4.111,13.543 10.348,17.816 6.129,4.199 11.262,-0.27 18.16,-2.431 7.592,-2.377 20.257,-3.04 26.687,2.612 C -0.999,-11.721 1.98,-4.127 0,0"
             style="fill:#a7d7ea;fill-opacity:1;fill-rule:nonzero;stroke:none"
             id="path92"
             inkscape:connector-curvature="0" /></g><g
           id="g94"
           transform="translate(282.582,61.5752)"><path
             d="m 0,0 c -2.293,-0.836 -4.406,-1.674 -6.781,-1.645 -0.08,0.001 -0.156,-0.004 -0.237,-10e-4 -4.91,-0.183 -7.201,3.506 -11.89,6.593 -5.922,3.897 -7.612,0.93 -13.336,0.252 -7.281,-0.861 -6.991,4.202 -11.426,7.901 -5.299,4.419 -11.435,3.606 -17.379,1.683 -0.521,0.32 -1.03,0.614 -1.483,0.883 -5.907,3.51 -11.529,-0.329 -17.305,0.28 -3.583,0.378 -7.054,0.05 -10.377,-1.161 -3.142,-1.145 -6.447,-1.756 -9.878,-0.315 -3.598,1.51 -5.828,2.698 -9.771,1.392 -1.717,-0.568 -2.375,-1.158 -4.542,-0.821 -1.441,0.225 -2.528,1.031 -4.199,0.676 -2.585,-0.549 -4.854,-2.94 -6.304,-5.294 -1.756,-2.852 -1.044,-4.777 -4.698,-5.001 -3.799,-0.234 -5.096,-1.464 -8.365,-3.179 -0.341,-0.179 -0.71,-0.328 -1.091,-0.463 -14.648,1.755 -20.848,16.654 -37.329,10.484 -6.264,-2.345 -13.437,-7.44 -20.478,-4.044 -2.626,1.266 -4.078,4.438 -6.79,5.638 -3.081,1.365 -9.225,2.401 -12.634,1.222 -3.614,-1.25 -3.039,-2.638 -5.707,-5.368 -3.937,-4.028 -4.205,-4.265 -10.679,-3.963 -5.549,0.259 -14.394,3.465 -19.849,1.349 -2.184,-0.848 -4.132,-2.534 -5.533,-4.621 -0.171,-0.255 -0.331,-0.517 -0.484,-0.784 -0.072,-0.123 -0.141,-0.248 -0.209,-0.374 -0.135,-0.251 -0.264,-0.506 -0.384,-0.764 -0.057,-0.124 -0.109,-0.249 -0.162,-0.375 -0.1,-0.234 -0.193,-0.47 -0.278,-0.709 -0.042,-0.116 -0.084,-0.23 -0.122,-0.346 -0.101,-0.308 -0.189,-0.619 -0.266,-0.933 -0.026,-0.104 -0.047,-0.209 -0.069,-0.314 -0.063,-0.287 -0.115,-0.576 -0.156,-0.867 -0.009,-0.064 -0.022,-0.127 -0.03,-0.192 -0.042,-0.34 -0.063,-0.682 -0.072,-1.024 -0.003,-0.092 -0.005,-0.184 -0.006,-0.275 -0.001,-0.346 0.011,-0.692 0.045,-1.036 0.005,-0.057 0.015,-0.115 0.022,-0.172 0.036,-0.318 0.088,-0.634 0.156,-0.948 0.014,-0.065 0.025,-0.13 0.041,-0.194 0.081,-0.343 0.184,-0.683 0.306,-1.019 0.026,-0.072 0.055,-0.143 0.083,-0.214 0.135,-0.346 0.284,-0.688 0.463,-1.022 3.484,-6.474 15.632,-6.833 21.925,-5.05 8.983,2.546 9.925,5.175 18.964,1.853 2.98,-1.095 5.628,-1.745 8.881,-1.969 3.063,-0.21 7.65,1.923 10.155,1.367 3.539,-0.784 3.111,-2.941 6.191,-4.599 3.044,-1.64 7.529,-1.313 11.068,-1.435 7.049,-0.243 13.694,-1.305 20.557,-2.703 4.324,-0.881 9.075,-1.835 13.633,-1.295 5.575,0.661 8.243,3.433 13.409,5.345 6.907,2.556 13.109,0.464 19.848,-0.828 7.093,-1.36 10.359,2.138 16.307,4.547 2.564,0.174 5.092,0.669 7.563,1.491 5.495,-0.063 10.497,-2.418 16.517,-3.707 10.269,-2.199 7.943,3.07 15.367,7.699 6.31,3.934 16.63,1.6 22.902,-1.032 7.179,-3.014 14.343,-5.174 21.244,-4.857 3.773,0.64 7.353,2.423 10.72,4.506 1.243,0.951 2.438,1.987 3.58,3.106 0.661,0.649 1.334,1.306 1.963,2 C 2.43,-3.29 3.412,-1.213 2.873,-0.11 1.957,0.45 1,0.494 0,0"
             style="fill:#005b77;fill-opacity:1;fill-rule:nonzero;stroke:none"
             id="path96"
             inkscape:connector-curvature="0" /></g><g
           id="g98"
           transform="translate(279.3076,59.2012)"><path
             d="M 0,0 C 0.661,0.648 1.334,1.306 1.964,2 2.782,3.355 3.764,5.433 3.226,6.535 2.31,7.096 1.353,7.14 0.352,6.646 -2.018,5.782 -4.193,4.906 -6.666,4.999 c -4.909,-0.183 -7.201,3.507 -11.891,6.594 -5.922,3.896 -7.611,0.929 -13.335,0.252 -7.281,-0.862 -6.991,4.202 -11.426,7.9 -5.299,4.419 -11.435,3.607 -17.379,1.684 -0.521,0.319 -1.03,0.614 -1.483,0.883 -5.907,3.509 -11.528,-0.33 -17.305,0.28 -3.583,0.378 -7.054,0.05 -10.377,-1.161 -3.142,-1.146 -6.447,-1.756 -9.878,-0.316 -3.598,1.511 -5.828,2.698 -9.771,1.393 -1.717,-0.569 -2.375,-1.158 -4.542,-0.821 -1.441,0.224 -2.528,1.031 -4.199,0.675 -2.585,-0.549 -4.853,-2.939 -6.304,-5.294 -1.756,-2.851 -1.044,-4.776 -4.698,-5.001 -3.799,-0.233 -5.096,-1.463 -8.365,-3.178 -0.34,-0.179 -0.71,-0.328 -1.09,-0.463 -14.649,1.755 -20.849,16.653 -37.33,10.483 -6.264,-2.345 -13.437,-7.439 -20.478,-4.044 -2.626,1.267 -4.078,4.439 -6.79,5.639 -3.081,1.364 -9.225,2.4 -12.634,1.222 -3.614,-1.25 -3.039,-2.638 -5.706,-5.369 -3.937,-4.028 -4.206,-4.264 -10.68,-3.962 -5.548,0.258 -14.394,3.464 -19.849,1.348 -5.739,-2.226 -9.865,-10.219 -6.655,-16.182 3.484,-6.474 15.632,-6.833 21.925,-5.05 8.983,2.546 9.926,5.175 18.964,1.852 2.98,-1.094 5.629,-1.745 8.881,-1.968 3.063,-0.21 7.65,1.922 10.155,1.367 3.539,-0.784 3.111,-2.942 6.191,-4.6 3.044,-1.64 7.529,-1.312 11.069,-1.434 7.048,-0.244 13.693,-1.305 20.556,-2.704 4.324,-0.88 9.075,-1.835 13.633,-1.295 5.575,0.662 8.243,3.433 13.409,5.345 6.907,2.557 13.11,0.464 19.848,-0.828 7.093,-1.359 10.359,2.139 16.307,4.548 2.564,0.174 5.092,0.669 7.563,1.49 5.495,-0.062 10.497,-2.418 16.517,-3.707 10.269,-2.198 7.943,3.07 15.367,7.699 6.31,3.935 16.63,1.601 22.902,-1.032 7.179,-3.014 14.343,-5.174 21.244,-4.856 3.774,0.639 7.353,2.423 10.72,4.506 C -2.337,-2.155 -1.142,-1.119 0,0"
             style="fill:#ffffff;fill-opacity:1;fill-rule:nonzero;stroke:none"
             id="path100"
             inkscape:connector-curvature="0" /></g><g
           id="g102"
           transform="translate(282.5332,65.7363)"><path
             d="m 0,0 c -0.916,0.561 -1.873,0.604 -2.874,0.11 -2.296,-0.837 -4.412,-1.676 -6.791,-1.644 -1.203,-1.289 -2.466,-2.645 -4.273,-3.731 -2.314,-1.389 -3.863,-1.506 -6.592,-1.375 -4.366,0.21 -3.486,1.01 -6.808,3.287 -4.938,3.385 -7.137,0.435 -12.362,0.717 -5.425,0.292 -10.525,5.427 -16.442,6.022 -5.231,0.527 -9.855,-1.014 -14.45,-3.152 -4.249,-1.977 -8.474,-5.777 -13.085,-6.372 -6.065,-0.782 -12.376,7.715 -17.584,5.132 -5.265,-2.611 -4.922,-9.271 -12.823,-9.134 -4.803,0.084 -7.697,3.726 -12.421,4 -3.12,0.182 -4.399,-1.429 -7.127,-2.024 -3.424,-0.746 -7.59,1.653 -10.535,1.171 -4.843,-0.793 -8.09,-7.755 -14.744,-6.156 -5.58,1.34 -6.343,7.439 -10.958,9.894 -5.532,2.943 -8.902,-0.715 -13.824,-1.773 -5.992,-1.288 -9.045,2.485 -14.304,3.388 -2.022,0.347 -4.197,-0.315 -6.224,0 -2.978,0.463 -4.635,2.036 -7.392,2.998 -4.24,1.483 -7.639,-0.91 -11.537,-2.609 -4.629,-2.018 -8.277,-1.691 -13.463,-1.889 -4.989,-0.189 -9.655,-2.086 -14.663,-1.5 -5.74,0.672 -5.823,4.713 -9.659,7.227 -2.28,-3.399 -3.11,-7.867 -1.121,-11.562 3.484,-6.473 15.632,-6.833 21.924,-5.049 8.984,2.545 9.926,5.174 18.965,1.852 2.98,-1.095 5.628,-1.745 8.881,-1.969 3.062,-0.21 7.65,1.923 10.154,1.368 3.54,-0.785 3.111,-2.942 6.191,-4.6 3.044,-1.64 7.529,-1.313 11.069,-1.435 7.048,-0.243 13.693,-1.304 20.556,-2.703 4.325,-0.881 9.076,-1.835 13.634,-1.295 5.574,0.661 8.242,3.433 13.408,5.345 6.908,2.557 13.11,0.464 19.849,-0.828 7.092,-1.359 10.358,2.139 16.306,4.548 2.565,0.174 5.093,0.669 7.563,1.49 5.495,-0.062 10.497,-2.418 16.518,-3.707 10.268,-2.198 7.943,3.07 15.366,7.699 6.311,3.935 16.63,1.601 22.902,-1.032 7.179,-3.014 14.343,-5.174 21.245,-4.856 3.773,0.639 7.352,2.422 10.719,4.505 1.244,0.952 2.439,1.988 3.58,3.107 0.662,0.648 1.334,1.306 1.964,2 C -0.443,-3.18 0.538,-1.103 0,0"
             style="fill:#a7d7ea;fill-opacity:1;fill-rule:nonzero;stroke:none"
             id="path104"
             inkscape:connector-curvature="0" /></g><g
           id="g106"
           transform="translate(483.5508,63.8828)"><path
             d="M 0,0 C 0.004,0.084 0.006,0.166 0.008,0.248 0.012,0.424 0.01,0.596 0,0.763 -0.004,0.832 -0.008,0.9 -0.014,0.968 -0.029,1.159 -0.057,1.344 -0.09,1.524 -0.096,1.561 -0.1,1.598 -0.107,1.633 c -0.19,0.916 -0.594,1.689 -1.163,2.338 -2.705,3.088 -9.154,3.321 -14.037,2.316 -2.668,-0.549 -4.853,-0.81 -7.673,-0.792 -3.666,0.026 -3.239,0.493 -5.661,2.019 -2.947,1.855 -7.826,3.517 -11.441,2.641 -3.881,-0.94 -4.563,-3.824 -9.846,-2.934 -1.543,0.259 -3.963,1.033 -5.273,2.005 -1.317,0.975 -1.426,2.58 -3.363,3.187 -2.567,0.803 -9.358,0.311 -11.764,-0.381 -2.715,-0.78 -4.25,-3.042 -6.766,-4.109 -0.562,-0.239 -1.136,-0.396 -1.719,-0.507 -1.257,0.24 -2.531,0.389 -3.828,0.378 -6.134,-0.046 -11.882,-0.795 -17.041,2.104 -2.345,1.32 -4.107,2 -6.906,2.206 -5.049,0.372 -13.488,0.839 -17.846,-1.926 -0.837,-0.532 -1.484,-1.156 -2.093,-1.793 -2.164,0.256 -4.426,0.212 -5.996,-0.641 -1.143,-0.62 -1.852,-2.51 -3.028,-3.524 -1.695,-0.046 -3.422,0.076 -4.965,0.19 -2.918,0.218 -5.951,1.079 -9.029,0.532 -2.771,-0.493 -4.592,-1.538 -7.613,-1.767 -4.256,-0.323 -8.528,0.399 -12.838,0.246 -3.359,-0.12 -6.83,-0.495 -8.783,-2.352 -0.178,-0.168 -0.342,-0.347 -0.492,-0.54 -0.006,-0.007 -0.012,-0.013 -0.016,-0.02 -0.139,-0.179 -0.264,-0.37 -0.377,-0.571 -0.016,-0.027 -0.033,-0.05 -0.047,-0.077 -0.1,-0.187 -0.187,-0.386 -0.266,-0.593 -0.017,-0.046 -0.039,-0.087 -0.056,-0.133 -0.088,-0.253 -0.162,-0.519 -0.215,-0.802 -0.162,-0.847 -0.209,-1.749 -0.152,-2.649 3.558,-1.871 8.877,-1.618 12.761,-2.097 7.737,-0.956 14.762,-2.728 20.586,-6.535 2.826,-1.007 5.584,-2.151 8.51,-3.09 4.846,-1.556 12.453,-0.729 17.641,-0.526 2.49,0.096 4.804,-0.042 7.052,-0.355 4.94,0.127 9.85,-0.281 14.774,-2.245 5.14,-2.051 9.926,-4.789 15.535,-5.341 4.115,-0.405 8.682,-0.773 12.984,-0.395 2.254,0.404 4.489,0.976 6.709,1.613 3.5,1.79 5.842,4.97 9.418,6.987 4.299,2.425 9.504,3.533 14.455,3.042 6.762,0.362 13.19,-0.209 19.465,3.454 0.914,0.533 1.828,0.958 2.744,1.315 0.655,0.443 1.346,0.813 2.442,1.055 0.976,0.216 2.013,0.237 3.037,0.324 0.412,0.059 0.826,0.114 1.24,0.162 0.041,0.008 0.084,0.01 0.127,0.018 3.977,0.816 9.787,1.716 10.672,5.305 0.07,0.287 0.123,0.563 0.164,0.832 0.014,0.084 0.02,0.163 0.031,0.244 C -0.029,-0.362 -0.01,-0.179 0,0"
             style="fill:#005b77;fill-opacity:1;fill-rule:nonzero;stroke:none"
             id="path108"
             inkscape:connector-curvature="0" /></g><g
           id="g110"
           transform="translate(440.6533,54.8965)"><path
             d="m 0,0 c 6.762,0.361 13.189,-0.209 19.466,3.454 0.914,0.533 1.827,0.958 2.743,1.315 0.654,0.443 1.347,0.813 2.442,1.055 0.977,0.216 2.014,0.237 3.037,0.323 0.413,0.06 0.826,0.115 1.24,0.163 0.042,0.007 0.085,0.009 0.127,0.018 3.977,0.816 9.787,1.716 10.672,5.305 2.038,8.271 -8.103,9.344 -15.058,7.912 -2.668,-0.549 -4.854,-0.811 -7.675,-0.792 -3.665,0.025 -3.237,0.493 -5.659,2.018 -2.948,1.856 -7.826,3.518 -11.441,2.642 -3.882,-0.94 -4.563,-3.824 -9.846,-2.934 -1.543,0.259 -3.963,1.033 -5.274,2.004 -1.317,0.976 -1.425,2.58 -3.364,3.188 -2.566,0.803 -9.356,0.31 -11.764,-0.381 -2.714,-0.78 -4.25,-3.042 -6.765,-4.109 -0.563,-0.24 -1.137,-0.396 -1.718,-0.507 -1.259,0.24 -2.531,0.388 -3.829,0.378 -6.135,-0.046 -11.883,-0.795 -17.04,2.104 -2.346,1.32 -4.108,2 -6.906,2.206 -5.05,0.371 -13.49,0.839 -17.846,-1.926 -0.839,-0.532 -1.484,-1.156 -2.094,-1.793 -2.165,0.255 -4.427,0.211 -5.997,-0.641 -1.142,-0.62 -1.85,-2.51 -3.027,-3.524 -1.695,-0.046 -3.421,0.076 -4.965,0.19 -2.917,0.218 -5.951,1.079 -9.029,0.532 -2.771,-0.493 -4.591,-1.538 -7.613,-1.767 -4.255,-0.324 -8.527,0.399 -12.838,0.246 -4.606,-0.165 -9.433,-0.795 -10.252,-5.088 -0.163,-0.847 -0.208,-1.749 -0.153,-2.65 3.559,-1.87 8.878,-1.617 12.763,-2.096 7.736,-0.956 14.762,-2.728 20.586,-6.535 2.826,-1.007 5.584,-2.151 8.51,-3.09 4.845,-1.556 12.453,-0.729 17.639,-0.527 2.49,0.097 4.805,-0.042 7.054,-0.354 4.939,0.127 9.85,-0.281 14.772,-2.245 5.142,-2.051 9.927,-4.789 15.537,-5.341 4.114,-0.405 8.68,-0.774 12.984,-0.396 2.254,0.405 4.488,0.977 6.709,1.614 3.5,1.79 5.841,4.969 9.417,6.987 C -10.155,-0.617 -4.95,0.491 0,0"
             style="fill:#ffffff;fill-opacity:1;fill-rule:nonzero;stroke:none"
             id="path112"
             inkscape:connector-curvature="0" /></g><g
           id="g114"
           transform="translate(440.6533,54.8965)"><path
             d="m 0,0 c 6.762,0.361 13.189,-0.209 19.466,3.454 0.914,0.533 1.827,0.958 2.743,1.315 0.654,0.443 1.347,0.813 2.442,1.055 0.977,0.216 2.014,0.237 3.037,0.323 0.413,0.06 0.826,0.115 1.24,0.163 0.042,0.007 0.085,0.009 0.127,0.018 3.977,0.816 9.787,1.716 10.672,5.305 0.607,2.464 0.127,4.285 -1.021,5.596 C 36.773,16.435 36.146,14.104 34.49,12.944 32.673,11.67 27.392,11.582 25.126,11.7 21.483,11.891 19.011,11.923 16.05,10.051 14.412,9.016 14.61,7.836 11.967,8.296 10.097,8.621 8.821,9.818 6.809,10.034 2.161,10.532 -0.199,7.659 -3.939,7.034 -7.85,6.381 -11.652,8.889 -15.6,6.977 c -3.796,-1.84 -3.354,-6.308 -8.34,-4.275 -3.732,1.522 -5.106,4.035 -9.01,1.323 -1.529,-1.062 -2.127,-2.517 -3.986,-2.99 -1.878,-0.477 -4.718,-0.065 -6.613,0.242 -6.75,1.098 -11.685,6.837 -18.799,6.09 -4.084,-0.429 -6.7,-4.158 -10.549,-4.665 -5.51,-0.724 -5.537,4.371 -9.719,5.957 -4.2,1.592 -8.438,-1.805 -12.258,-2.3 -4.622,-0.597 -9.891,1.415 -13.749,3.74 -6.39,3.847 -12.833,0.104 -19.984,1.927 -3.079,0.786 -6.742,2.152 -10.198,2.301 -0.724,-0.688 -1.247,-1.574 -1.468,-2.736 -0.163,-0.847 -0.208,-1.749 -0.153,-2.65 3.559,-1.87 8.878,-1.617 12.763,-2.096 7.736,-0.956 14.762,-2.728 20.586,-6.535 2.826,-1.007 5.584,-2.151 8.51,-3.09 4.845,-1.556 12.453,-0.729 17.639,-0.527 2.49,0.097 4.805,-0.042 7.054,-0.354 4.939,0.127 9.85,-0.281 14.772,-2.245 5.142,-2.051 9.927,-4.789 15.537,-5.341 4.114,-0.405 8.68,-0.774 12.984,-0.396 2.254,0.405 4.488,0.977 6.709,1.614 3.5,1.79 5.841,4.969 9.417,6.987 C -10.155,-0.617 -4.95,0.491 0,0"
             style="fill:#a7d7ea;fill-opacity:1;fill-rule:nonzero;stroke:none"
             id="path116"
             inkscape:connector-curvature="0" /></g></g></g><g
       id="g118"><g
         id="g120"
         clip-path="url(#clipPath124)"><g
           id="g126"
           transform="translate(177.5137,16.8857)"><path
             d="m 0,0 c -0.144,-0.314 -0.335,-0.554 -0.583,-0.706 -0.238,-0.153 -0.516,-0.23 -0.803,-0.23 -0.296,0 -0.563,0.086 -0.811,0.249 -0.248,0.163 -0.44,0.401 -0.582,0.716 -0.134,0.325 -0.211,0.706 -0.211,1.165 0,0.43 0.067,0.812 0.201,1.137 0.133,0.324 0.325,0.572 0.563,0.744 0.24,0.173 0.515,0.268 0.822,0.268 0.296,0 0.572,-0.086 0.821,-0.257 C -0.335,2.913 -0.144,2.665 0,2.35 0.152,2.025 0.219,1.643 0.219,1.194 0.219,0.717 0.152,0.325 0,0 M 1.107,7.087 C 0.85,7.087 0.658,7.001 0.515,6.829 0.382,6.647 0.315,6.39 0.315,6.046 V 3.563 C 0,3.906 -0.325,4.165 -0.659,4.336 -0.994,4.499 -1.396,4.584 -1.882,4.584 -2.713,4.584 -3.391,4.289 -3.907,3.706 -4.413,3.113 -4.671,2.302 -4.671,1.251 c 0,-0.496 0.067,-0.955 0.192,-1.384 0.133,-0.429 0.315,-0.803 0.572,-1.117 0.249,-0.315 0.545,-0.554 0.889,-0.727 0.333,-0.171 0.706,-0.257 1.108,-0.257 0.305,0 0.592,0.047 0.84,0.133 0.258,0.077 0.497,0.201 0.716,0.363 0.219,0.162 0.44,0.373 0.669,0.631 V -1.27 c 0,-0.306 0.076,-0.544 0.219,-0.716 0.153,-0.162 0.345,-0.248 0.573,-0.248 0.23,0 0.42,0.086 0.574,0.239 0.142,0.162 0.218,0.4 0.218,0.725 V 6.132 C 1.899,6.447 1.834,6.686 1.69,6.848 1.556,7.01 1.365,7.087 1.107,7.087"
             style="fill:#e9f5fe;fill-opacity:1;fill-rule:nonzero;stroke:none"
             id="path128"
             inkscape:connector-curvature="0" /></g><g
           id="g130"
           transform="translate(181.9443,18.6055)"><path
             d="m 0,0 c 0.058,0.562 0.22,0.993 0.487,1.289 0.268,0.287 0.611,0.43 1.032,0.43 0.439,0 0.793,-0.143 1.06,-0.43 C 2.846,1.002 2.999,0.573 3.047,0 Z M 4.308,-0.765 C 4.546,-0.641 4.67,-0.363 4.67,0.058 4.67,0.516 4.546,0.955 4.316,1.394 4.088,1.833 3.733,2.196 3.256,2.473 2.789,2.75 2.225,2.884 1.575,2.884 1.07,2.884 0.611,2.808 0.201,2.646 -0.22,2.483 -0.563,2.244 -0.85,1.948 -1.127,1.642 -1.347,1.279 -1.489,0.851 c -0.153,-0.421 -0.23,-0.88 -0.23,-1.376 0,-1.05 0.306,-1.892 0.898,-2.502 0.601,-0.612 1.441,-0.927 2.521,-0.927 0.468,0 0.889,0.067 1.251,0.191 0.363,0.124 0.659,0.278 0.899,0.458 0.238,0.192 0.419,0.382 0.544,0.583 0.114,0.21 0.171,0.381 0.171,0.534 0,0.173 -0.047,0.306 -0.152,0.402 C 4.298,-1.69 4.165,-1.643 3.992,-1.643 3.83,-1.643 3.706,-1.681 3.62,-1.758 3.409,-1.948 3.237,-2.111 3.113,-2.226 2.98,-2.341 2.837,-2.445 2.684,-2.55 2.521,-2.646 2.368,-2.722 2.196,-2.77 2.034,-2.818 1.854,-2.837 1.652,-2.837 1.346,-2.837 1.079,-2.76 0.831,-2.617 0.583,-2.474 0.382,-2.254 0.229,-1.958 0.076,-1.672 0,-1.327 0,-0.955 h 3.286 c 0.439,0 0.774,0.066 1.022,0.19"
             style="fill:#e9f5fe;fill-opacity:1;fill-rule:nonzero;stroke:none"
             id="path132"
             inkscape:connector-curvature="0" /></g><g
           id="g134"
           transform="translate(191.8672,18.29)"><path
             d="m 0,0 c -0.324,0.182 -0.755,0.335 -1.271,0.459 -0.439,0.104 -0.783,0.2 -1.031,0.268 -0.258,0.075 -0.449,0.17 -0.601,0.286 -0.143,0.104 -0.22,0.258 -0.22,0.429 0,0.191 0.096,0.353 0.296,0.488 0.21,0.124 0.458,0.19 0.764,0.19 0.296,0 0.526,-0.048 0.698,-0.152 0.171,-0.096 0.324,-0.23 0.448,-0.392 0.153,-0.191 0.296,-0.345 0.411,-0.439 0.123,-0.096 0.267,-0.154 0.439,-0.154 0.239,0 0.429,0.068 0.553,0.192 0.135,0.124 0.192,0.277 0.192,0.469 0,0.18 -0.057,0.362 -0.182,0.543 C 0.382,2.369 0.2,2.54 -0.028,2.693 -0.258,2.847 -0.545,2.961 -0.897,3.056 -1.241,3.142 -1.633,3.189 -2.063,3.189 -2.617,3.189 -3.095,3.104 -3.486,2.923 -3.878,2.741 -4.174,2.502 -4.374,2.206 -4.575,1.91 -4.67,1.585 -4.67,1.251 c 0,-0.373 0.106,-0.697 0.324,-0.955 0.22,-0.258 0.507,-0.468 0.869,-0.621 0.364,-0.153 0.831,-0.306 1.414,-0.448 0.506,-0.124 0.878,-0.258 1.098,-0.392 0.23,-0.134 0.334,-0.354 0.334,-0.64 0,-0.201 -0.104,-0.363 -0.315,-0.515 -0.219,-0.154 -0.496,-0.23 -0.83,-0.23 -0.412,0 -0.745,0.076 -0.984,0.22 -0.239,0.153 -0.439,0.372 -0.621,0.678 -0.076,0.153 -0.172,0.277 -0.267,0.363 -0.096,0.086 -0.23,0.124 -0.402,0.124 -0.199,0 -0.372,-0.067 -0.496,-0.191 -0.134,-0.133 -0.2,-0.296 -0.2,-0.478 0,-0.276 0.105,-0.554 0.305,-0.831 0.211,-0.276 0.526,-0.505 0.955,-0.696 0.43,-0.182 0.945,-0.278 1.548,-0.278 0.629,0 1.164,0.086 1.604,0.258 0.448,0.173 0.783,0.421 1.003,0.754 0.228,0.325 0.334,0.727 0.334,1.185 0,0.306 -0.076,0.583 -0.249,0.822 C 0.583,-0.382 0.334,-0.172 0,0"
             style="fill:#e9f5fe;fill-opacity:1;fill-rule:nonzero;stroke:none"
             id="path136"
             inkscape:connector-curvature="0" /></g><g
           id="g138"
           transform="translate(194.5889,23.9053)"><path
             d="M 0,0 C -0.229,0 -0.42,-0.076 -0.592,-0.239 -0.764,-0.391 -0.85,-0.582 -0.85,-0.82 c 0,-0.269 0.086,-0.469 0.249,-0.613 0.171,-0.142 0.372,-0.21 0.601,-0.21 0.229,0 0.42,0.068 0.583,0.21 0.162,0.154 0.248,0.354 0.248,0.613 0,0.266 -0.086,0.467 -0.258,0.61 C 0.411,-0.076 0.22,0 0,0"
             style="fill:#e9f5fe;fill-opacity:1;fill-rule:nonzero;stroke:none"
             id="path140"
             inkscape:connector-curvature="0" /></g><g
           id="g142"
           transform="translate(194.5703,21.4795)"><path
             d="m 0,0 c -0.249,0 -0.449,-0.086 -0.602,-0.258 -0.153,-0.162 -0.229,-0.41 -0.229,-0.745 v -4.803 c 0,-0.325 0.076,-0.573 0.229,-0.755 0.153,-0.171 0.353,-0.267 0.602,-0.267 0.248,0 0.449,0.086 0.611,0.258 0.162,0.173 0.239,0.429 0.239,0.764 v 4.851 c 0,0.297 -0.077,0.535 -0.239,0.697 C 0.449,-0.086 0.248,0 0,0"
             style="fill:#e9f5fe;fill-opacity:1;fill-rule:nonzero;stroke:none"
             id="path144"
             inkscape:connector-curvature="0" /></g><g
           id="g146"
           transform="translate(200.9014,16.9531)"><path
             d="m 0,0 c -0.151,-0.296 -0.354,-0.525 -0.602,-0.669 -0.248,-0.152 -0.515,-0.228 -0.793,-0.228 -0.467,0 -0.859,0.17 -1.155,0.524 -0.296,0.345 -0.439,0.86 -0.439,1.538 0,0.678 0.143,1.194 0.43,1.557 0.287,0.362 0.668,0.553 1.156,0.553 0.486,0 0.887,-0.191 1.184,-0.572 C 0.087,2.32 0.239,1.786 0.239,1.098 0.239,0.668 0.153,0.306 0,0 M 1.061,4.526 C 0.841,4.526 0.65,4.44 0.507,4.287 0.363,4.125 0.296,3.896 0.296,3.609 V 3.381 C 0,3.771 -0.324,4.059 -0.678,4.24 -1.021,4.422 -1.433,4.517 -1.91,4.517 -2.311,4.517 -2.674,4.44 -3.008,4.298 -3.343,4.163 -3.629,3.954 -3.886,3.667 -4.135,3.391 -4.336,3.046 -4.469,2.646 -4.612,2.234 -4.679,1.786 -4.679,1.28 c 0,-0.678 0.114,-1.27 0.343,-1.786 0.221,-0.515 0.545,-0.917 0.965,-1.203 0.42,-0.297 0.907,-0.439 1.472,-0.439 0.466,0 0.868,0.094 1.212,0.286 0.333,0.191 0.63,0.467 0.888,0.821 C 0.191,-1.585 0.182,-1.986 0.162,-2.234 0.153,-2.483 0.097,-2.712 0,-2.932 c -0.095,-0.22 -0.268,-0.382 -0.506,-0.506 -0.239,-0.125 -0.573,-0.181 -1.013,-0.181 -0.209,0 -0.4,0.018 -0.562,0.056 -0.163,0.039 -0.307,0.096 -0.421,0.182 -0.114,0.077 -0.229,0.172 -0.325,0.286 -0.095,0.116 -0.19,0.23 -0.277,0.334 -0.181,0.221 -0.401,0.325 -0.649,0.325 -0.191,0 -0.362,-0.066 -0.497,-0.19 -0.143,-0.135 -0.21,-0.297 -0.21,-0.507 0,-0.267 0.124,-0.524 0.363,-0.783 0.248,-0.258 0.603,-0.467 1.05,-0.631 0.459,-0.162 0.975,-0.238 1.558,-0.238 0.631,0 1.155,0.057 1.576,0.191 0.429,0.124 0.773,0.316 1.03,0.583 0.268,0.257 0.459,0.592 0.574,0.993 0.114,0.401 0.181,0.878 0.181,1.442 v 4.87 C 1.872,3.696 1.815,4.001 1.71,4.212 1.605,4.422 1.385,4.526 1.061,4.526"
             style="fill:#e9f5fe;fill-opacity:1;fill-rule:nonzero;stroke:none"
             id="path148"
             inkscape:connector-curvature="0" /></g><g
           id="g150"
           transform="translate(209.584,20.3721)"><path
             d="M 0,0 C -0.173,0.353 -0.432,0.62 -0.784,0.821 -1.128,1.013 -1.529,1.107 -1.969,1.107 -2.427,1.107 -2.828,1.013 -3.181,0.83 -3.276,0.783 -3.362,0.726 -3.459,0.659 -3.697,0.487 -3.927,0.258 -4.146,-0.028 v 0.21 c 0,0.2 -0.039,0.373 -0.105,0.505 -0.077,0.143 -0.172,0.249 -0.286,0.316 -0.125,0.066 -0.258,0.104 -0.401,0.104 -0.24,0 -0.431,-0.075 -0.574,-0.239 -0.143,-0.151 -0.21,-0.39 -0.21,-0.716 v -4.85 c 0,-0.325 0.077,-0.573 0.24,-0.755 0.152,-0.172 0.352,-0.268 0.59,-0.268 0.248,0 0.459,0.086 0.613,0.258 0.162,0.173 0.238,0.43 0.238,0.765 v 2.1 c 0,0.688 0.038,1.156 0.124,1.405 0.115,0.315 0.296,0.553 0.535,0.734 0.248,0.183 0.526,0.269 0.821,0.269 0.458,0 0.764,-0.145 0.917,-0.44 0.153,-0.297 0.23,-0.717 0.23,-1.27 v -2.798 c 0,-0.325 0.086,-0.573 0.238,-0.755 0.154,-0.172 0.353,-0.268 0.612,-0.268 0.238,0 0.439,0.086 0.591,0.258 0.162,0.173 0.24,0.43 0.24,0.765 v 3.122 c 0,0.372 -0.019,0.679 -0.059,0.917 C 0.181,-0.43 0.104,-0.2 0,0"
             style="fill:#e9f5fe;fill-opacity:1;fill-rule:nonzero;stroke:none"
             id="path152"
             inkscape:connector-curvature="0" /></g><g
           id="g154"
           transform="translate(212.3623,18.6055)"><path
             d="m 0,0 c 0.057,0.562 0.219,0.993 0.497,1.289 0.267,0.287 0.61,0.43 1.022,0.43 0.438,0 0.792,-0.143 1.059,-0.43 C 2.855,1.002 3.008,0.573 3.047,0 Z m 4.308,-0.765 c 0.238,0.124 0.361,0.402 0.361,0.823 0,0.458 -0.113,0.897 -0.353,1.336 C 4.087,1.833 3.733,2.196 3.266,2.473 2.799,2.75 2.235,2.884 1.576,2.884 1.069,2.884 0.61,2.808 0.2,2.646 -0.21,2.483 -0.563,2.244 -0.841,1.948 -1.127,1.642 -1.347,1.279 -1.49,0.851 -1.634,0.43 -1.71,-0.029 -1.71,-0.525 c 0,-1.05 0.297,-1.892 0.898,-2.502 0.592,-0.612 1.433,-0.927 2.512,-0.927 0.468,0 0.888,0.067 1.251,0.191 0.01,0 0.028,0.01 0.037,0.01 0.345,0.124 0.631,0.276 0.869,0.448 0.24,0.192 0.412,0.382 0.537,0.583 0.113,0.21 0.18,0.381 0.18,0.534 0,0.173 -0.057,0.306 -0.162,0.402 -0.104,0.096 -0.248,0.143 -0.42,0.143 -0.162,0 -0.278,-0.038 -0.363,-0.115 C 3.419,-1.948 3.247,-2.111 3.113,-2.226 2.979,-2.341 2.836,-2.445 2.683,-2.55 2.53,-2.646 2.367,-2.722 2.205,-2.77 2.043,-2.818 1.871,-2.837 1.681,-2.837 h -0.01 -0.02 c -0.296,0 -0.573,0.077 -0.821,0.22 -0.248,0.143 -0.448,0.363 -0.592,0.659 -0.029,0.057 -0.056,0.105 -0.076,0.162 v 0.01 C 0.057,-1.537 0.01,-1.251 0,-0.955 h 3.285 c 0.44,0 0.783,0.066 1.023,0.19"
             style="fill:#e9f5fe;fill-opacity:1;fill-rule:nonzero;stroke:none"
             id="path156"
             inkscape:connector-curvature="0" /></g><g
           id="g158"
           transform="translate(222.1797,16.8857)"><path
             d="m 0,0 c -0.144,-0.314 -0.344,-0.554 -0.583,-0.706 -0.248,-0.153 -0.516,-0.23 -0.812,-0.23 -0.286,0 -0.553,0.086 -0.802,0.249 -0.248,0.163 -0.439,0.401 -0.582,0.716 -0.144,0.325 -0.21,0.706 -0.21,1.165 0,0.43 0.066,0.812 0.201,1.137 0.133,0.324 0.314,0.572 0.562,0.744 0.24,0.173 0.517,0.268 0.822,0.268 0.297,0 0.564,-0.086 0.812,-0.257 C -0.344,2.913 -0.144,2.665 0,2.35 0.144,2.025 0.22,1.643 0.22,1.194 0.22,0.717 0.144,0.325 0,0 M 1.108,7.087 C 0.85,7.087 0.649,7.001 0.516,6.829 0.383,6.647 0.306,6.39 0.306,6.046 V 3.563 c -0.315,0.343 -0.63,0.602 -0.964,0.773 -0.335,0.163 -0.746,0.248 -1.224,0.248 -0.84,0 -1.509,-0.295 -2.024,-0.878 C -4.422,3.113 -4.68,2.302 -4.68,1.251 c 0,-0.496 0.068,-0.955 0.201,-1.384 0.124,-0.429 0.315,-0.803 0.564,-1.117 0.248,-0.315 0.544,-0.554 0.888,-0.727 0.343,-0.171 0.716,-0.257 1.117,-0.257 0.306,0 0.582,0.047 0.841,0.133 0.257,0.077 0.497,0.201 0.715,0.363 0.22,0.162 0.44,0.373 0.66,0.631 V -1.27 c 0,-0.306 0.077,-0.544 0.229,-0.716 0.152,-0.162 0.334,-0.248 0.573,-0.248 0.23,0 0.419,0.086 0.563,0.239 0.153,0.162 0.229,0.4 0.229,0.725 V 6.132 C 1.9,6.447 1.824,6.686 1.69,6.848 1.557,7.01 1.356,7.087 1.108,7.087"
             style="fill:#e9f5fe;fill-opacity:1;fill-rule:nonzero;stroke:none"
             id="path160"
             inkscape:connector-curvature="0" /></g><g
           id="g162"
           transform="translate(232.1787,16.5039)"><path
             d="m 0,0 c -0.305,-0.372 -0.669,-0.554 -1.089,-0.554 -0.496,0 -0.897,0.182 -1.203,0.544 -0.306,0.354 -0.458,0.869 -0.458,1.538 0,0.45 0.076,0.85 0.22,1.175 0.142,0.334 0.334,0.582 0.582,0.754 0.257,0.173 0.535,0.268 0.859,0.268 0.307,0 0.582,-0.095 0.812,-0.268 C -0.038,3.285 0.144,3.037 0.268,2.723 0.392,2.397 0.458,2.016 0.458,1.576 0.458,0.889 0.306,0.363 0,0 M 1.795,3.419 C 1.565,3.916 1.241,4.298 0.821,4.565 0.401,4.833 -0.086,4.966 -0.649,4.966 -1.127,4.966 -1.538,4.871 -1.862,4.698 -2.196,4.527 -2.512,4.279 -2.827,3.945 v 2.569 c 0,0.305 -0.076,0.545 -0.21,0.707 -0.144,0.171 -0.344,0.248 -0.602,0.248 -0.238,0 -0.429,-0.086 -0.572,-0.258 -0.135,-0.173 -0.201,-0.43 -0.201,-0.774 v -7.325 c 0,-0.315 0.066,-0.554 0.211,-0.716 0.142,-0.163 0.324,-0.249 0.562,-0.249 0.24,0 0.43,0.086 0.582,0.249 0.154,0.162 0.23,0.401 0.23,0.716 v 0.162 c 0.181,-0.21 0.334,-0.372 0.439,-0.477 0.116,-0.105 0.249,-0.21 0.411,-0.316 0.163,-0.094 0.353,-0.18 0.582,-0.238 0.23,-0.057 0.469,-0.096 0.726,-0.096 0.421,0 0.813,0.086 1.166,0.258 0.343,0.173 0.649,0.411 0.888,0.727 0.248,0.305 0.439,0.678 0.563,1.097 0.134,0.43 0.192,0.888 0.192,1.404 0,0.688 -0.116,1.28 -0.345,1.786"
             style="fill:#e9f5fe;fill-opacity:1;fill-rule:nonzero;stroke:none"
             id="path164"
             inkscape:connector-curvature="0" /></g><g
           id="g166"
           transform="translate(240.1914,21.375)"><path
             d="m 0,0 c -0.114,0.066 -0.239,0.104 -0.362,0.104 -0.182,0 -0.316,-0.028 -0.411,-0.094 -0.097,-0.058 -0.192,-0.183 -0.278,-0.354 -0.086,-0.181 -0.18,-0.42 -0.286,-0.735 l -1.347,-3.84 -1.421,4.136 c -0.097,0.286 -0.203,0.506 -0.327,0.659 -0.124,0.153 -0.304,0.228 -0.544,0.228 -0.143,0 -0.277,-0.038 -0.4,-0.114 -0.135,-0.066 -0.239,-0.172 -0.306,-0.296 -0.077,-0.115 -0.115,-0.248 -0.115,-0.391 0,-0.143 0.067,-0.354 0.192,-0.659 l 2.062,-5.196 -0.152,-0.382 c -0.116,-0.267 -0.211,-0.477 -0.307,-0.621 -0.085,-0.143 -0.181,-0.238 -0.296,-0.295 -0.104,-0.058 -0.258,-0.087 -0.449,-0.087 -0.085,0 -0.171,0.01 -0.276,0.039 -0.086,0.019 -0.182,0.038 -0.267,0.038 -0.23,0 -0.401,-0.057 -0.517,-0.162 -0.124,-0.105 -0.181,-0.249 -0.181,-0.44 0,-0.286 0.124,-0.477 0.373,-0.592 0.248,-0.104 0.611,-0.153 1.107,-0.153 0.497,0 0.899,0.076 1.194,0.229 0.306,0.154 0.544,0.374 0.716,0.66 0.182,0.286 0.372,0.677 0.554,1.184 l 2.196,5.731 c 0.049,0.151 0.097,0.295 0.135,0.438 0.037,0.144 0.057,0.258 0.076,0.334 0,0.124 -0.029,0.248 -0.095,0.363 C 0.201,-0.153 0.115,-0.067 0,0"
             style="fill:#e9f5fe;fill-opacity:1;fill-rule:nonzero;stroke:none"
             id="path168"
             inkscape:connector-curvature="0" /></g><g
           id="g170"
           transform="translate(263.0156,22.5)"><path
             d="m 0,0 c 0.09,0.177 0.283,0.269 0.586,0.269 0.11,0 0.249,-0.015 0.403,-0.037 C 1.15,0.206 1.267,0.193 1.33,0.193 c 0.14,0 0.262,0.057 0.361,0.166 0.105,0.111 0.157,0.245 0.157,0.399 0,0.483 -0.489,0.721 -1.472,0.721 -0.553,0 -0.988,-0.071 -1.306,-0.211 C -1.247,1.126 -1.475,0.9 -1.607,0.591 -1.74,0.28 -1.805,-0.136 -1.805,-0.662 v -0.504 h -0.4 c -0.563,0 -0.844,-0.199 -0.844,-0.604 0,-0.179 0.068,-0.328 0.203,-0.438 0.137,-0.115 0.327,-0.17 0.578,-0.17 h 0.463 v -4.446 c 0,-0.331 0.077,-0.583 0.236,-0.757 0.16,-0.176 0.356,-0.263 0.594,-0.263 0.251,0 0.454,0.087 0.61,0.263 0.16,0.174 0.239,0.426 0.239,0.757 v 4.446 h 0.409 c 0.3,0 0.535,0.037 0.704,0.111 0.173,0.074 0.255,0.249 0.255,0.521 0,0.388 -0.317,0.58 -0.959,0.58 h -0.409 v 0.399 c 0,0.334 0.044,0.588 0.126,0.767"
             style="fill:#e9f5fe;fill-opacity:1;fill-rule:nonzero;stroke:none"
             id="path172"
             inkscape:connector-curvature="0" /></g><g
           id="g174"
           transform="translate(269.2354,20.5156)"><path
             d="m 0,0 c 0,0.29 -0.166,0.525 -0.499,0.703 -0.332,0.176 -0.671,0.264 -1.026,0.264 -0.355,0 -0.633,-0.088 -0.848,-0.264 -0.21,-0.178 -0.415,-0.436 -0.613,-0.783 -0.016,0.347 -0.083,0.605 -0.205,0.783 -0.124,0.176 -0.325,0.264 -0.605,0.264 -0.545,0 -0.816,-0.378 -0.816,-1.133 V -4.84 c 0,-0.336 0.08,-0.59 0.233,-0.76 0.154,-0.174 0.353,-0.259 0.6,-0.259 0.245,0 0.446,0.084 0.607,0.255 0.155,0.169 0.241,0.424 0.241,0.764 v 1.402 c 0,0.504 0.015,0.932 0.047,1.283 0.034,0.349 0.092,0.654 0.176,0.909 0.087,0.252 0.208,0.441 0.365,0.574 0.155,0.127 0.357,0.193 0.604,0.193 0.177,0 0.386,-0.039 0.622,-0.112 0.234,-0.075 0.385,-0.116 0.449,-0.116 0.163,0 0.314,0.065 0.457,0.201 C -0.072,-0.375 0,-0.204 0,0"
             style="fill:#e9f5fe;fill-opacity:1;fill-rule:nonzero;stroke:none"
             id="path176"
             inkscape:connector-curvature="0" /></g><g
           id="g178"
           transform="translate(270.7324,18.6143)"><path
             d="m 0,0 c 0.059,0.564 0.221,0.984 0.497,1.28 0.268,0.287 0.611,0.43 1.022,0.43 0.45,0 0.793,-0.143 1.07,-0.43 C 2.856,1.004 3.009,0.573 3.048,0 Z M 4.308,-0.773 C 4.546,-0.64 4.67,-0.372 4.67,0.049 4.67,0.507 4.556,0.946 4.316,1.395 4.088,1.835 3.734,2.188 3.267,2.464 2.799,2.741 2.235,2.875 1.576,2.875 1.07,2.875 0.611,2.799 0.201,2.637 -0.209,2.475 -0.562,2.245 -0.84,1.939 -1.126,1.633 -1.347,1.271 -1.489,0.851 c -0.153,-0.43 -0.22,-0.889 -0.22,-1.385 0,-1.05 0.296,-1.892 0.898,-2.502 0.591,-0.611 1.433,-0.917 2.511,-0.917 0.468,0 0.889,0.057 1.251,0.182 0.363,0.124 0.669,0.277 0.907,0.458 0.24,0.191 0.421,0.381 0.545,0.591 0.116,0.201 0.172,0.372 0.172,0.526 0,0.173 -0.056,0.305 -0.162,0.401 -0.105,0.096 -0.248,0.144 -0.421,0.144 -0.153,0 -0.277,-0.038 -0.363,-0.116 C 3.42,-1.957 3.248,-2.12 3.113,-2.225 2.98,-2.35 2.847,-2.454 2.685,-2.55 2.531,-2.654 2.369,-2.73 2.207,-2.769 2.034,-2.827 1.854,-2.846 1.653,-2.846 c -0.297,0 -0.574,0.077 -0.822,0.22 C 0.583,-2.474 0.383,-2.253 0.229,-1.967 0.086,-1.681 0.01,-1.336 0,-0.955 h 3.286 c 0.44,0 0.782,0.058 1.022,0.182"
             style="fill:#e9f5fe;fill-opacity:1;fill-rule:nonzero;stroke:none"
             id="path180"
             inkscape:connector-curvature="0" /></g><g
           id="g182"
           transform="translate(277.7148,18.6143)"><path
             d="M 0,0 C 0.057,0.564 0.219,0.984 0.486,1.28 0.764,1.567 1.106,1.71 1.519,1.71 1.957,1.71 2.311,1.567 2.587,1.28 2.854,1.004 3.008,0.573 3.046,0 Z M 4.307,-0.773 C 4.546,-0.64 4.67,-0.372 4.67,0.049 4.67,0.507 4.555,0.946 4.316,1.395 4.087,1.835 3.733,2.188 3.266,2.464 2.788,2.741 2.234,2.875 1.575,2.875 1.068,2.875 0.61,2.799 0.199,2.637 -0.221,2.475 -0.564,2.245 -0.842,1.939 -1.128,1.633 -1.347,1.271 -1.49,0.851 c -0.154,-0.43 -0.23,-0.889 -0.23,-1.385 0,-1.05 0.306,-1.892 0.908,-2.502 0.591,-0.611 1.432,-0.917 2.511,-0.917 0.468,0 0.888,0.057 1.251,0.182 0.363,0.124 0.668,0.277 0.907,0.458 0.239,0.191 0.421,0.381 0.536,0.591 0.124,0.201 0.171,0.372 0.171,0.526 0,0.173 -0.047,0.305 -0.153,0.401 -0.104,0.096 -0.248,0.144 -0.42,0.144 -0.152,0 -0.276,-0.038 -0.362,-0.116 C 3.418,-1.957 3.246,-2.12 3.113,-2.225 2.979,-2.35 2.846,-2.454 2.683,-2.55 2.53,-2.654 2.368,-2.73 2.196,-2.769 2.034,-2.827 1.852,-2.846 1.651,-2.846 1.355,-2.846 1.079,-2.769 0.83,-2.626 0.582,-2.474 0.381,-2.253 0.238,-1.967 0.086,-1.681 0.009,-1.336 0,-0.955 h 3.284 c 0.44,0 0.784,0.058 1.023,0.182"
             style="fill:#e9f5fe;fill-opacity:1;fill-rule:nonzero;stroke:none"
             id="path184"
             inkscape:connector-curvature="0" /></g><g
           id="g186"
           transform="translate(287.79,17.0391)"><path
             d="m 0,0 c -0.011,-0.038 -0.02,-0.076 -0.038,-0.114 -0.144,-0.325 -0.325,-0.564 -0.574,-0.726 -0.229,-0.163 -0.496,-0.249 -0.773,-0.249 -0.058,0 -0.115,0 -0.162,0.02 -0.401,0.028 -0.736,0.218 -1.014,0.544 -0.314,0.363 -0.466,0.888 -0.466,1.556 0,0.707 0.152,1.242 0.477,1.615 0.315,0.362 0.706,0.543 1.165,0.543 0.295,0 0.564,-0.085 0.802,-0.256 C -0.344,2.76 -0.162,2.521 -0.029,2.196 0.114,1.881 0.181,1.5 0.181,1.06 0.181,0.649 0.124,0.296 0,0 M 1.489,2.865 C 1.232,3.371 0.888,3.763 0.458,4.03 0.019,4.298 -0.459,4.431 -0.975,4.431 -1.404,4.431 -1.786,4.336 -2.121,4.154 -2.464,3.973 -2.799,3.686 -3.114,3.295 v 0.201 c 0,0.315 -0.067,0.543 -0.219,0.705 -0.153,0.164 -0.345,0.239 -0.583,0.239 -0.239,0 -0.43,-0.075 -0.573,-0.228 -0.144,-0.162 -0.21,-0.401 -0.21,-0.727 v -7.238 c 0,-0.373 0.057,-0.641 0.152,-0.841 0.106,-0.181 0.316,-0.277 0.631,-0.277 0.535,0 0.802,0.373 0.802,1.108 v 2.511 c 0.173,-0.209 0.344,-0.391 0.526,-0.543 0.133,-0.115 0.267,-0.211 0.41,-0.297 0.324,-0.191 0.726,-0.286 1.203,-0.286 0.402,0 0.775,0.076 1.118,0.23 0.353,0.162 0.65,0.391 0.907,0.677 0.248,0.296 0.449,0.659 0.601,1.089 0.144,0.43 0.211,0.907 0.211,1.423 0,0.067 0,0.133 -0.009,0.2 C 1.834,1.862 1.709,2.396 1.489,2.865"
             style="fill:#e9f5fe;fill-opacity:1;fill-rule:nonzero;stroke:none"
             id="path188"
             inkscape:connector-curvature="0" /></g><g
           id="g190"
           transform="translate(291.3232,21.4795)"><path
             d="M 0,0 C -0.238,0 -0.439,-0.075 -0.592,-0.248 -0.745,-0.42 -0.83,-0.668 -0.83,-1.003 v -4.803 c 0,-0.325 0.085,-0.573 0.238,-0.755 0.153,-0.171 0.354,-0.257 0.592,-0.257 0.249,0 0.449,0.076 0.611,0.257 0.162,0.172 0.24,0.42 0.24,0.755 v 4.851 c 0,0.306 -0.078,0.535 -0.24,0.707 C 0.449,-0.075 0.249,0 0,0"
             style="fill:#e9f5fe;fill-opacity:1;fill-rule:nonzero;stroke:none"
             id="path192"
             inkscape:connector-curvature="0" /></g><g
           id="g194"
           transform="translate(291.3428,23.9053)"><path
             d="M 0,0 C -0.221,0 -0.421,-0.076 -0.593,-0.229 -0.765,-0.382 -0.85,-0.582 -0.85,-0.82 c 0,-0.259 0.085,-0.459 0.257,-0.602 0.162,-0.143 0.364,-0.221 0.593,-0.221 0.229,0 0.419,0.078 0.592,0.221 0.162,0.143 0.239,0.343 0.239,0.602 0,0.266 -0.086,0.477 -0.249,0.61 C 0.41,-0.066 0.22,0 0,0"
             style="fill:#e9f5fe;fill-opacity:1;fill-rule:nonzero;stroke:none"
             id="path196"
             inkscape:connector-curvature="0" /></g><g
           id="g198"
           transform="translate(298.9482,16.2725)"><path
             d="m 0,0 -1.721,2.708 0.891,0.816 c 0.454,0.41 0.683,0.74 0.683,0.986 0,0.198 -0.072,0.367 -0.207,0.5 -0.144,0.133 -0.318,0.2 -0.529,0.2 -0.175,0 -0.323,-0.045 -0.445,-0.136 C -1.454,4.986 -1.63,4.814 -1.863,4.571 L -3.751,2.589 v 4.073 c 0,0.342 -0.078,0.604 -0.228,0.777 -0.154,0.179 -0.357,0.267 -0.616,0.267 -0.264,0 -0.472,-0.095 -0.617,-0.292 -0.14,-0.196 -0.214,-0.479 -0.214,-0.85 v -7.161 c 0,-0.336 0.076,-0.59 0.223,-0.759 0.146,-0.175 0.35,-0.26 0.608,-0.26 0.221,0 0.42,0.087 0.587,0.262 0.171,0.174 0.257,0.421 0.257,0.745 v 1.337 l 0.911,0.859 1.479,-2.437 c 0.187,-0.288 0.34,-0.488 0.451,-0.6 0.109,-0.114 0.27,-0.166 0.474,-0.166 0.235,0 0.428,0.075 0.574,0.229 0.146,0.156 0.22,0.364 0.22,0.632 0,0.091 -0.029,0.195 -0.084,0.298 C 0.219,-0.352 0.125,-0.203 0,0"
             style="fill:#e9f5fe;fill-opacity:1;fill-rule:nonzero;stroke:none"
             id="path200"
             inkscape:connector-curvature="0" /></g><g
           id="g202"
           transform="translate(301.2187,16.5068)"><path
             d="m 0,0 c -0.259,0 -0.475,-0.09 -0.652,-0.271 -0.177,-0.179 -0.266,-0.394 -0.266,-0.644 0,-0.297 0.094,-0.528 0.277,-0.689 0.186,-0.165 0.404,-0.247 0.657,-0.247 0.245,0 0.46,0.082 0.645,0.25 0.182,0.164 0.274,0.393 0.274,0.686 0,0.253 -0.092,0.47 -0.274,0.648 C 0.476,-0.09 0.257,0 0,0"
             style="fill:#e9f5fe;fill-opacity:1;fill-rule:nonzero;stroke:none"
             id="path204"
             inkscape:connector-curvature="0" /></g><g
           id="g206"
           transform="translate(308.8682,17.4668)"><path
             d="m 0,0 c -0.172,0 -0.318,-0.056 -0.437,-0.162 -0.118,-0.108 -0.227,-0.254 -0.33,-0.442 -0.183,-0.321 -0.395,-0.558 -0.638,-0.713 -0.239,-0.156 -0.527,-0.234 -0.865,-0.234 -0.248,0 -0.478,0.047 -0.688,0.146 -0.209,0.097 -0.386,0.238 -0.535,0.424 -0.149,0.186 -0.261,0.412 -0.337,0.675 -0.077,0.264 -0.118,0.556 -0.118,0.872 0,0.67 0.153,1.204 0.455,1.589 0.304,0.388 0.707,0.581 1.2,0.581 0.345,0 0.628,-0.078 0.85,-0.234 0.226,-0.154 0.439,-0.389 0.644,-0.699 0.113,-0.163 0.217,-0.278 0.31,-0.351 0.093,-0.07 0.209,-0.107 0.35,-0.107 0.209,0 0.391,0.07 0.543,0.21 0.149,0.139 0.222,0.31 0.222,0.509 0,0.198 -0.065,0.412 -0.198,0.639 -0.133,0.226 -0.326,0.439 -0.576,0.642 -0.254,0.2 -0.56,0.366 -0.923,0.491 -0.365,0.128 -0.763,0.191 -1.199,0.191 -0.698,0 -1.304,-0.143 -1.808,-0.433 C -4.582,3.305 -4.968,2.896 -5.231,2.368 -5.5,1.839 -5.632,1.23 -5.632,0.54 c 0,-1.017 0.291,-1.827 0.871,-2.434 0.582,-0.602 1.393,-0.907 2.433,-0.907 0.484,0 0.925,0.069 1.313,0.199 0.391,0.13 0.712,0.305 0.968,0.52 0.257,0.215 0.449,0.44 0.573,0.68 0.126,0.237 0.189,0.462 0.189,0.67 0,0.173 -0.069,0.341 -0.205,0.498 C 0.375,-0.08 0.206,0 0,0"
             style="fill:#e9f5fe;fill-opacity:1;fill-rule:nonzero;stroke:none"
             id="path208"
             inkscape:connector-curvature="0" /></g><g
           id="g210"
           transform="translate(314.6934,16.4854)"><path
             d="m 0,0 c -0.307,-0.392 -0.707,-0.583 -1.214,-0.583 -0.343,0 -0.631,0.086 -0.879,0.258 -0.248,0.181 -0.438,0.43 -0.572,0.764 -0.134,0.325 -0.2,0.707 -0.2,1.146 0,0.439 0.066,0.831 0.2,1.165 0.134,0.325 0.324,0.583 0.582,0.755 0.249,0.162 0.535,0.248 0.869,0.248 C -0.707,3.753 -0.307,3.562 0,3.18 0.295,2.798 0.448,2.264 0.448,1.585 0.448,0.907 0.295,0.382 0,0 M 1.231,4.05 C 0.935,4.354 0.581,4.584 0.171,4.746 -0.249,4.919 -0.707,4.994 -1.214,4.994 -1.72,4.994 -2.178,4.919 -2.589,4.755 -3,4.593 -3.354,4.364 -3.649,4.059 -3.936,3.762 -4.165,3.399 -4.317,2.979 c -0.154,-0.42 -0.23,-0.888 -0.23,-1.394 0,-0.506 0.076,-0.964 0.22,-1.385 0.162,-0.41 0.383,-0.773 0.687,-1.079 0.286,-0.306 0.651,-0.545 1.051,-0.707 0.401,-0.162 0.86,-0.248 1.375,-0.248 0.507,0 0.965,0.086 1.385,0.248 0.401,0.162 0.755,0.392 1.052,0.698 0.295,0.305 0.524,0.667 0.676,1.088 0.154,0.421 0.23,0.888 0.23,1.385 0,0.506 -0.076,0.965 -0.23,1.386 C 1.747,3.381 1.527,3.743 1.231,4.05"
             style="fill:#e9f5fe;fill-opacity:1;fill-rule:nonzero;stroke:none"
             id="path212"
             inkscape:connector-curvature="0" /></g><g
           id="g214"
           transform="translate(326.9443,20.4258)"><path
             d="m 0,0 c -0.165,0.334 -0.413,0.593 -0.743,0.773 -0.331,0.179 -0.73,0.271 -1.187,0.271 -0.394,0 -0.753,-0.083 -1.076,-0.25 C -3.33,0.628 -3.634,0.373 -3.918,0.03 -4.117,0.368 -4.366,0.624 -4.67,0.793 -4.972,0.959 -5.334,1.044 -5.756,1.044 -6.164,1.044 -6.529,0.963 -6.864,0.794 -7.193,0.633 -7.505,0.377 -7.799,0.03 v 0.159 c 0,0.271 -0.076,0.483 -0.229,0.637 -0.157,0.151 -0.346,0.231 -0.577,0.231 -0.236,0 -0.428,-0.081 -0.577,-0.247 C -9.326,0.647 -9.398,0.406 -9.398,0.09 v -4.802 c 0,-0.348 0.081,-0.612 0.243,-0.792 0.162,-0.177 0.37,-0.267 0.626,-0.267 0.258,0 0.464,0.09 0.625,0.267 0.154,0.18 0.234,0.444 0.234,0.792 v 2.267 c 0,0.708 0.089,1.249 0.263,1.622 0.175,0.383 0.534,0.57 1.085,0.57 0.273,0 0.475,-0.074 0.602,-0.227 0.126,-0.148 0.205,-0.343 0.235,-0.572 0.027,-0.234 0.041,-0.563 0.041,-0.986 v -2.674 c 0,-0.354 0.08,-0.615 0.241,-0.795 0.152,-0.176 0.36,-0.264 0.615,-0.264 0.263,0 0.471,0.088 0.633,0.264 0.161,0.18 0.239,0.441 0.239,0.795 v 2.231 c 0,0.718 0.064,1.22 0.184,1.503 0.112,0.217 0.267,0.398 0.467,0.527 0.198,0.129 0.408,0.198 0.629,0.198 0.274,0 0.48,-0.074 0.618,-0.222 0.132,-0.146 0.216,-0.33 0.248,-0.548 0.028,-0.216 0.044,-0.505 0.044,-0.866 v -2.823 c 0,-0.348 0.081,-0.612 0.244,-0.792 0.162,-0.177 0.368,-0.267 0.624,-0.267 0.262,0 0.474,0.088 0.634,0.264 0.158,0.18 0.237,0.441 0.237,0.795 v 3.276 C 0.213,-0.783 0.143,-0.306 0,0"
             style="fill:#e9f5fe;fill-opacity:1;fill-rule:nonzero;stroke:none"
             id="path216"
             inkscape:connector-curvature="0" /></g><g
           id="g218"
           transform="translate(248.7344,24.4336)"><path
             d="m 0,0 c 0.641,0.213 1.195,0.342 1.699,0.396 0.492,0.053 0.864,0.076 1.166,0.076 0.324,0 0.564,-0.026 0.838,-0.073 l 0.078,0.494 c 0,0 -0.758,0.233 -1.754,0.152 L 1.949,1.313 C 2.258,1.379 2.49,1.654 2.49,1.983 2.49,2.36 2.184,2.665 1.807,2.665 1.43,2.665 1.123,2.36 1.123,1.983 1.123,1.654 1.355,1.379 1.665,1.313 L 1.751,1.015 C 0.693,0.869 -0.148,0.456 -0.148,0.456 Z"
             style="fill:#e9f5fe;fill-opacity:1;fill-rule:nonzero;stroke:none"
             id="path220"
             inkscape:connector-curvature="0" /></g><g
           id="g222"
           transform="translate(245.7344,22.4131)"><path
             d="m 0,0 c 0.024,0.032 0.049,0.062 0.073,0.093 l -0.202,0.145 -0.315,0.231 c -0.018,-0.025 -0.516,-0.481 -0.909,-1.325 -0.016,0.026 -0.035,0.052 -0.057,0.078 -0.117,0.127 -0.281,0.192 -0.49,0.188 h -0.01 c -0.129,0 -0.218,0.044 -0.276,0.097 0.058,0.072 0.091,0.165 0.091,0.267 0,0.238 -0.193,0.433 -0.432,0.433 -0.239,0 -0.433,-0.195 -0.433,-0.433 0,-0.24 0.194,-0.433 0.433,-0.433 0.037,0 0.074,0.006 0.108,0.013 0.106,-0.118 0.275,-0.221 0.523,-0.216 0.127,0.001 0.22,-0.032 0.283,-0.101 0.072,-0.078 0.095,-0.19 0.103,-0.276 -10e-4,-10e-4 -10e-4,-0.003 -0.002,-0.003 -0.282,-0.771 -0.201,-1.729 -0.201,-1.729 l 0.684,-0.026 c 0.014,0.349 0.064,0.958 0.24,1.443 0.342,0.938 0.768,1.524 0.785,1.549 z"
             style="fill:#e9f5fe;fill-opacity:1;fill-rule:nonzero;stroke:none"
             id="path224"
             inkscape:connector-curvature="0" /></g><g
           id="g226"
           transform="translate(257.5537,24.333)"><path
             d="m 0,0 c -0.238,0 -0.433,-0.192 -0.433,-0.433 0,-0.037 0.006,-0.072 0.015,-0.107 -0.118,-0.106 -0.222,-0.276 -0.218,-0.523 0.002,-0.128 -0.031,-0.221 -0.1,-0.284 -0.055,-0.048 -0.124,-0.074 -0.191,-0.09 -0.51,0.712 -1.136,1.148 -1.136,1.148 l -0.492,-0.525 c 0.371,-0.338 0.75,-0.762 1.118,-1.289 0.255,-0.365 0.518,-0.835 0.737,-1.304 l 0.662,0.314 c 0,0 -0.303,0.748 -0.729,1.419 0.074,0.027 0.149,0.067 0.215,0.124 0.129,0.117 0.193,0.282 0.189,0.49 0,0.136 0.043,0.227 0.096,0.288 0.074,-0.058 0.166,-0.094 0.267,-0.094 0.24,0 0.434,0.195 0.434,0.433 C 0.434,-0.192 0.24,0 0,0"
             style="fill:#e9f5fe;fill-opacity:1;fill-rule:nonzero;stroke:none"
             id="path228"
             inkscape:connector-curvature="0" /></g><g
           id="g230"
           transform="translate(255.834,18.3779)"><path
             d="m 0,0 c -0.912,-0.445 -2.414,-1.032 -4.389,-1.308 -0.775,-0.107 -1.527,-0.147 -2.218,-0.147 -0.902,0 -1.696,0.066 -2.306,0.144 -0.697,0.087 -1.242,0.195 -1.574,0.271 h -0.003 c 0.082,-0.26 0.181,-0.511 0.296,-0.75 0.003,-0.007 0.006,-0.014 0.007,-0.018 0.015,-0.028 0.029,-0.058 0.042,-0.087 0.016,-0.028 0.029,-0.055 0.043,-0.082 0.004,-0.007 0.008,-0.014 0.012,-0.021 0.195,-0.369 0.431,-0.709 0.699,-1.003 0.931,-1.02 1.881,-1.181 1.89,-1.182 l 0.015,-0.002 0.014,-0.003 c 0.008,-0.004 0.85,-0.276 2.13,-0.276 1.26,0 2.495,0.254 3.672,0.755 0.872,0.446 1.698,1.124 2.107,1.729 0.316,0.467 0.544,0.965 0.679,1.484 0.072,0.275 0.129,0.717 0.096,1.181 C 0.955,0.513 0.549,0.268 0,0"
             style="fill:#e9f5fe;fill-opacity:1;fill-rule:nonzero;stroke:none"
             id="path232"
             inkscape:connector-curvature="0" /></g><g
           id="g234"
           transform="translate(246.8096,20.8496)"><path
             d="M 0,0 C 0,1.003 0.812,1.814 1.823,1.814 2.827,1.814 3.647,1.003 3.647,0 3.647,-1.013 2.827,-1.824 1.823,-1.824 0.812,-1.824 0,-1.013 0,0 m 7.153,1.776 c 0.62,0 1.127,-0.505 1.127,-1.127 0,-0.63 -0.507,-1.136 -1.127,-1.136 -0.621,0 -1.127,0.506 -1.127,1.136 0,0.622 0.506,1.127 1.127,1.127 M 4.556,-3.238 c 1.9,0.268 3.333,0.822 4.211,1.252 0.725,0.343 1.194,0.668 1.376,0.801 -0.182,0.66 -0.678,1.71 -1.137,2.36 C 7.717,3.027 6.313,3.505 5.597,3.62 5.319,3.667 5.1,3.687 4.794,3.687 4.498,3.687 4.145,3.667 3.657,3.62 3.181,3.571 2.646,3.438 2.024,3.229 1.146,2.941 0.363,2.483 -0.258,1.91 L -0.276,1.891 C -0.372,1.805 -0.563,1.623 -0.783,1.346 -0.812,1.308 -1.213,0.744 -1.519,-0.114 -1.758,-0.765 -1.747,-1.7 -1.747,-1.709 c 0,-0.221 0.019,-0.439 0.038,-0.659 v -0.01 C -1.7,-2.407 -1.7,-2.426 -1.7,-2.454 c 0.018,-0.153 0.049,-0.307 0.077,-0.459 0.459,-0.114 3.161,-0.744 6.179,-0.325"
             style="fill:#e9f5fe;fill-opacity:1;fill-rule:nonzero;stroke:none"
             id="path236"
             inkscape:connector-curvature="0" /></g></g></g></g></svg>